<svg width="26" height="26" viewBox="0 0 26 26" version="1.1" xmlns="http://www.w3.org/2000/svg" xmlns:xlink="http://www.w3.org/1999/xlink">
<title>noun_827932_cc</title>
<desc>Created using Figma</desc>
<g id="Canvas" transform="translate(-90 -4541)">
<g id="noun_827932_cc">
<g id="Group">
<g id="Vector">
<use xlink:href="#path0_fill" transform="matrix(1 0 0 -1 90 4567)" fill="#FFFFFF"/>
</g>
<g id="Vector">
<use xlink:href="#path1_fill" transform="matrix(1 0 0 -1 107.288 4555.53)" fill="#FFFFFF"/>
</g>
<g id="Vector">
<use xlink:href="#path1_fill" transform="matrix(1 0 0 -1 101.467 4555.53)" fill="#FFFFFF"/>
</g>
<g id="Vector">
<use xlink:href="#path1_fill" transform="matrix(1 0 0 -1 95.6461 4555.53)" fill="#FFFFFF"/>
</g>
</g>
</g>
</g>
<defs>
<path id="path0_fill" d="M 13.0066 0.0131435C 10.6783 0.0131435 8.42507 0.613996 6.43475 1.77815L 1.2524 0.0506969C 0.914422 -0.0619629 0.538889 0.0131438 0.276017 0.276017C 0.0131438 0.538889 -0.0619629 0.914422 0.0506969 1.2524L 1.77815 6.43475C 0.613996 8.42507 0.0131435 10.6783 0.0131435 13.0066C 0.0131435 20.1792 5.8339 26 13.0066 26C 20.1792 26 26 20.1792 26 13.0066C 26 5.8339 20.1792 0.0131435 13.0066 0.0131435ZM 13.0066 24.1223C 6.88539 24.1223 1.89081 19.1278 1.89081 13.0066C 1.89081 10.9036 2.49166 8.83816 3.61826 7.07316C 3.76847 6.84784 3.80602 6.54741 3.73092 6.28454L 2.45411 2.45411L 6.24698 3.69336C 6.50986 3.76847 6.81028 3.73092 7.0356 3.5807C 8.80061 2.45411 10.866 1.85325 12.969 1.85325C 19.0902 1.85325 24.0848 6.84784 24.0848 12.969C 24.0848 19.0902 19.1278 24.1223 13.0066 24.1223Z"/>
<path id="path1_fill" d="M 1.53968 3.07937C 2.39003 3.07937 3.07937 2.39003 3.07937 1.53968C 3.07937 0.68934 2.39003 0 1.53968 0C 0.68934 0 0 0.68934 0 1.53968C 0 2.39003 0.68934 3.07937 1.53968 3.07937Z"/>
</defs>
</svg>
