<svg xmlns="http://www.w3.org/2000/svg" viewBox="0 0 29.81 30"><title>insta</title><path d="M21.23,7.63a1.51,1.51,0,1,0,1.5,1.51A1.51,1.51,0,0,0,21.23,7.63Zm0,1.54a0,0,0,0,1,0,0,0,0,0,0,1,0,0,0,0,0,0,1,0,0A0,0,0,0,1,21.23,9.12Z" transform="translate(-0.1)" style="fill:none"/><path d="M15,9.25A5.75,5.75,0,1,0,20.71,15,5.73,5.73,0,0,0,15,9.25ZM15,19a4,4,0,1,1,3.93-4A3.94,3.94,0,0,1,15,19Z" transform="translate(-0.1)" style="fill:none"/><circle cx="21.13" cy="9.14" r="0.02" style="fill:#333"/><ellipse cx="14.9" cy="15" rx="3.93" ry="3.95" style="fill:#333"/><path d="M20.6,5.4H9.41a4,4,0,0,0-3.94,4V20.63a4,4,0,0,0,3.94,4H20.6a4,4,0,0,0,3.94-4V9.37A4,4,0,0,0,20.6,5.4ZM15,20.75A5.75,5.75,0,1,1,20.71,15,5.73,5.73,0,0,1,15,20.75Zm6.23-10.09a1.51,1.51,0,1,1,1.5-1.51A1.51,1.51,0,0,1,21.23,10.66Z" transform="translate(-0.1)" style="fill:#333"/><path d="M24.13,0H5.88A5.8,5.8,0,0,0,.1,5.81V24.19A5.8,5.8,0,0,0,5.88,30H24.13a5.8,5.8,0,0,0,5.78-5.81V5.81A5.8,5.8,0,0,0,24.13,0Zm2.19,20.63A5.74,5.74,0,0,1,20.6,26.4H9.41a5.74,5.74,0,0,1-5.72-5.76V9.37A5.74,5.74,0,0,1,9.41,3.6H20.6a5.74,5.74,0,0,1,5.73,5.76Z" transform="translate(-0.1)" style="fill:#333"/><path d="M20.6,3.6H9.41A5.74,5.74,0,0,0,3.68,9.37V20.63A5.74,5.74,0,0,0,9.41,26.4H20.6a5.74,5.74,0,0,0,5.73-5.76V9.37A5.74,5.74,0,0,0,20.6,3.6Zm3.94,17a4,4,0,0,1-3.94,4H9.41a4,4,0,0,1-3.94-4V9.37a4,4,0,0,1,3.94-4H20.6a4,4,0,0,1,3.94,4Z" transform="translate(-0.1)" style="fill:#fff"/></svg>