<svg xmlns="http://www.w3.org/2000/svg" viewBox="0 0 29.81 30"><title>youtube</title><path d="M24.22,0H6A5.8,5.8,0,0,0,.19,5.81V24.19A5.8,5.8,0,0,0,6,30H24.22A5.8,5.8,0,0,0,30,24.19V5.81A5.8,5.8,0,0,0,24.22,0Zm3.12,19.31a4.2,4.2,0,0,1-1.21,3,4.13,4.13,0,0,1-2.93,1.22H7a4.13,4.13,0,0,1-2.93-1.22,4.2,4.2,0,0,1-1.21-3V10.57a4.2,4.2,0,0,1,1.21-3A4.13,4.13,0,0,1,7,6.4H23.2a4.13,4.13,0,0,1,2.93,1.22,4.2,4.2,0,0,1,1.21,3Z" transform="translate(-0.19)" style="fill:#333"/><polygon points="12.27 11.14 12.27 18.74 15.94 16.84 19.62 14.94 15.94 13.04 12.27 11.14" style="fill:#333"/><path d="M23.2,6.4H7A4.13,4.13,0,0,0,4.06,7.62a4.2,4.2,0,0,0-1.21,3v8.74a4.2,4.2,0,0,0,1.21,3A4.13,4.13,0,0,0,7,23.49H23.2a4.13,4.13,0,0,0,2.93-1.22,4.2,4.2,0,0,0,1.21-3V10.57a4.2,4.2,0,0,0-1.21-3A4.13,4.13,0,0,0,23.2,6.4ZM16.13,16.84l-3.67,1.9v-7.6L16.13,13l3.67,1.9Z" transform="translate(-0.19)" style="fill:#fff"/></svg>