<?xml version="1.0" standalone="no"?>
<!DOCTYPE svg PUBLIC "-//W3C//DTD SVG 20010904//EN"
 "http://www.w3.org/TR/2001/REC-SVG-20010904/DTD/svg10.dtd">
<svg version="1.0" xmlns="http://www.w3.org/2000/svg"
 width="634.000000pt" height="634.000000pt" viewBox="0 0 634.000000 634.000000"
 preserveAspectRatio="xMidYMid meet">
<metadata>
Created by potrace 1.11, written by Peter Selinger 2001-2013
</metadata>
<g transform="translate(0.000000,634.000000) scale(0.100000,-0.100000)"
fill="#000000" stroke="none">
<path d="M2995 6198 c-55 -9 -143 -26 -195 -38 -52 -12 -102 -23 -110 -25 -58
-12 -224 -76 -320 -122 -209 -101 -328 -184 -503 -353 -376 -361 -589 -872
-581 -1397 5 -418 148 -926 395 -1413 80 -156 92 -180 198 -364 32 -55 71
-123 86 -151 33 -61 231 -404 328 -570 38 -66 116 -199 172 -295 422 -724 550
-941 733 -1238 12 -20 28 -47 34 -59 6 -13 14 -23 17 -23 3 0 31 44 61 97 87
152 100 175 235 408 70 121 142 247 160 280 18 33 100 182 183 330 234 423
346 626 395 715 68 127 102 189 142 260 23 41 68 125 100 185 32 61 85 160
117 220 126 235 250 514 298 665 73 230 119 404 141 528 24 136 29 169 36 236
14 132 7 408 -12 506 -3 14 -9 50 -15 80 -6 30 -17 80 -26 110 -8 30 -16 62
-18 70 -2 8 -12 35 -21 60 -9 25 -17 50 -19 55 -10 35 -75 183 -98 224 -147
262 -294 440 -508 612 -231 186 -557 334 -845 383 -249 43 -407 50 -560 24z"/>
</g>
</svg>
