<?xml version="1.0" standalone="no"?>
<!DOCTYPE svg PUBLIC "-//W3C//DTD SVG 20010904//EN"
 "http://www.w3.org/TR/2001/REC-SVG-20010904/DTD/svg10.dtd">
<svg version="1.0" xmlns="http://www.w3.org/2000/svg"
 width="1488.000000pt" height="1488.000000pt" viewBox="0 0 1488.000000 1488.000000"
 preserveAspectRatio="xMidYMid meet">
<metadata>
Created by potrace 1.11, written by Peter Selinger 2001-2013
</metadata>
<g transform="translate(0.000000,1488.000000) scale(0.100000,-0.100000)"
fill="#000000" stroke="none">
<path d="M3680 9639 c0 -4377 1 -4600 18 -4595 9 3 190 58 400 121 l384 115
246 -2 247 -3 3 -1688 2 -1687 333 2 332 3 3 286 2 285 33 31 c17 16 268 225
557 463 677 559 730 606 883 770 91 97 137 165 180 265 27 61 31 85 35 187 4
99 1 127 -17 187 -48 156 -168 243 -360 258 -217 16 -366 -56 -599 -294 -103
-105 -145 -143 -155 -136 -98 76 -487 398 -487 403 0 17 172 220 260 307 207
205 442 329 714 375 116 20 444 16 551 -6 246 -51 425 -144 581 -300 136 -137
219 -292 261 -489 22 -99 24 -388 5 -482 -75 -354 -260 -592 -787 -1011 -82
-65 -253 -198 -380 -294 l-229 -175 722 -3 722 -2 2 -313 3 -312 1550 0 1550
0 3 560 2 560 -2193 2195 c-1207 1207 -2214 2222 -2239 2255 -148 197 -264
432 -317 643 -49 191 -51 244 -51 1193 l0 890 -25 88 c-13 48 -31 127 -40 175
-17 102 -20 339 -4 436 16 104 65 262 118 383 27 62 70 175 96 251 79 242 222
513 385 731 92 123 312 351 434 449 353 286 834 489 1296 548 132 16 474 16
600 -1 745 -100 1417 -511 1808 -1107 37 -56 77 -119 89 -140 l22 -39 1 1133
0 1132 -3775 0 -3775 0 0 -4601z"/>
<path d="M8820 12983 c-76 -6 -270 -42 -370 -69 -526 -141 -943 -429 -1264
-872 -21 -29 -36 -55 -33 -58 3 -3 36 8 74 24 101 44 179 69 294 94 89 19 134
22 309 22 233 0 308 -11 467 -70 164 -60 311 -147 451 -265 77 -64 196 -196
240 -266 15 -23 30 -43 34 -43 3 0 29 31 57 69 205 283 511 481 865 563 116
26 363 36 474 19 153 -25 326 -77 435 -133 22 -11 41 -17 44 -15 11 12 -164
225 -281 343 -370 371 -842 596 -1368 653 -90 10 -324 12 -428 4z"/>
<path d="M7660 11668 c-84 -12 -219 -57 -318 -107 -232 -117 -413 -346 -494
-626 -20 -70 -23 -103 -23 -255 0 -190 13 -266 70 -395 68 -154 115 -208 609
-705 1202 -1212 1501 -1510 1509 -1507 4 1 444 443 978 982 1040 1050 1046
1056 1118 1228 59 143 75 226 75 387 0 178 -23 287 -93 435 -79 165 -185 290
-336 394 -152 105 -302 157 -485 168 -250 14 -486 -55 -661 -194 -219 -175
-350 -393 -378 -633 -6 -47 -14 -120 -20 -164 -7 -61 -15 -88 -38 -119 -39
-56 -105 -89 -180 -89 -70 0 -99 11 -147 53 -57 49 -68 80 -82 229 -28 295
-136 514 -340 691 -221 193 -476 268 -764 227z m264 -583 c286 -87 378 -458
167 -674 -157 -161 -413 -160 -567 1 -84 88 -118 178 -112 301 7 168 112 311
271 367 64 23 174 25 241 5z m2459 -17 c79 -37 129 -78 170 -141 84 -128 92
-291 21 -427 -83 -158 -276 -243 -449 -196 -165 44 -274 172 -299 352 -14 103
38 247 120 327 87 86 166 117 289 114 74 -2 100 -7 148 -29z"/>
<path d="M6742 9034 l4 -689 27 -105 c46 -178 119 -336 234 -509 65 -97 185
-221 1198 -1241 358 -360 1184 -1192 1835 -1847 650 -656 1185 -1193 1186
-1193 2 0 4 420 4 933 l0 932 -1094 1110 c-1073 1089 -1095 1110 -1137 1115
-24 3 -64 18 -89 32 -25 15 -209 193 -410 395 -996 1005 -1707 1717 -1733
1735 l-28 20 3 -688z"/>
<path d="M11085 9518 c-83 -84 -523 -528 -978 -987 l-828 -835 323 -325 c767
-773 1641 -1651 1644 -1651 2 0 4 889 4 1975 0 1086 -4 1975 -8 1975 -4 0 -75
-68 -157 -152z"/>
<path d="M3965 4456 l-280 -71 0 -1240 0 -1240 285 0 285 0 3 1304 c1 718 -1
1308 -5 1312 -5 3 -134 -26 -288 -65z"/>
<path d="M7650 1574 c-94 -20 -177 -65 -244 -131 -63 -63 -95 -117 -121 -208
-30 -103 -17 -270 30 -368 46 -96 201 -215 315 -241 265 -61 515 72 585 311
45 152 39 269 -20 389 -45 92 -102 156 -178 198 -114 64 -232 80 -367 50z
m176 -151 c95 -32 174 -98 206 -173 20 -47 42 -181 39 -242 -2 -44 -32 -115
-63 -149 -36 -38 -114 -89 -164 -106 -63 -21 -147 -14 -216 20 -133 65 -196
180 -186 340 7 114 35 173 112 243 90 80 172 101 272 67z"/>
<path d="M3665 1558 c-3 -7 -4 -215 -3 -463 l3 -450 275 0 c265 0 277 1 333
24 102 40 158 106 172 202 14 94 -40 189 -130 226 -25 10 -45 20 -45 23 0 3
14 14 31 24 46 27 79 105 79 186 -1 58 -4 71 -38 120 -71 104 -129 120 -445
120 -173 0 -229 -3 -232 -12z m491 -154 c44 -21 64 -50 64 -91 0 -42 -15 -73
-48 -98 -24 -18 -46 -20 -189 -23 l-163 -3 0 115 0 116 151 0 c119 0 158 -3
185 -16z m44 -400 c87 -35 98 -165 18 -214 -30 -18 -51 -20 -215 -20 l-183 0
0 125 0 125 170 0 c133 0 178 -3 210 -16z"/>
<path d="M4857 1373 c-47 -109 -140 -319 -206 -468 -65 -148 -117 -273 -114
-277 2 -5 37 -8 77 -8 l73 0 43 103 c24 56 48 108 53 115 7 9 61 12 230 10
l220 -3 47 -110 47 -110 88 -3 c80 -3 87 -1 82 15 -3 10 -68 160 -145 333 -76
173 -167 379 -202 458 l-62 142 -72 0 -72 0 -87 -197z m232 -201 c39 -90 71
-168 71 -173 0 -5 -69 -9 -156 -9 -121 0 -155 3 -151 13 53 131 153 345 158
340 4 -5 40 -82 78 -171z"/>
<path d="M5665 1558 c-3 -7 -4 -220 -3 -473 l3 -460 77 -3 77 -3 3 153 3 153
150 5 c189 7 236 22 316 100 71 71 93 128 87 238 -7 159 -106 265 -269 292
-95 15 -438 13 -444 -2z m466 -175 c57 -26 89 -73 89 -134 0 -61 -28 -108 -85
-144 -47 -29 -51 -30 -179 -30 l-131 0 -3 155 c-1 85 0 161 3 168 9 24 246 12
306 -15z"/>
<path d="M6450 1490 l0 -80 150 0 150 0 2 -392 3 -393 77 -3 78 -3 2 393 3
393 153 3 153 3 -3 77 -3 77 -382 3 -383 2 0 -80z"/>
<path d="M8450 1106 l0 -466 245 0 c258 0 319 7 396 46 99 49 145 127 137 233
-6 83 -39 131 -117 168 -33 15 -60 30 -60 33 0 3 14 14 32 25 41 25 77 97 84
168 5 50 2 61 -31 121 -33 59 -42 68 -103 98 l-68 33 -257 3 -258 4 0 -466z
m507 288 c46 -34 59 -70 42 -118 -26 -72 -48 -81 -230 -84 l-159 -3 0 116 0
116 159 -3 c143 -3 162 -5 188 -24z m22 -387 c19 -7 43 -24 53 -38 25 -33 26
-110 3 -145 -30 -46 -69 -54 -255 -54 l-170 0 0 125 0 125 168 -1 c102 0 180
-5 201 -12z"/>
<path d="M9410 1095 l0 -475 78 0 78 0 230 341 229 341 5 -339 5 -338 78 -3
77 -3 0 476 0 476 -72 -3 -73 -3 -220 -316 c-121 -173 -228 -326 -237 -340
-16 -23 -17 -7 -17 319 l-1 342 -80 0 -80 0 0 -475z"/>
<path d="M10390 1564 c0 -4 70 -107 155 -230 85 -123 155 -226 155 -229 0 -3
-72 -109 -160 -235 -88 -126 -160 -233 -160 -239 0 -7 33 -11 89 -11 l90 0
118 175 c65 96 120 175 123 175 3 -1 61 -78 130 -173 l125 -172 93 -3 c50 -1
92 1 92 6 0 5 -74 114 -164 243 -92 131 -161 238 -157 244 14 18 297 430 305
443 6 9 -15 12 -88 12 l-96 0 -110 -165 c-61 -91 -114 -164 -118 -161 -4 3
-59 77 -122 165 l-114 161 -93 0 c-51 0 -93 -3 -93 -6z"/>
</g>
</svg>
