<svg id="guards-logo" xmlns="http://www.w3.org/2000/svg" viewBox="0 0 500.34 217.35"><title>12-guards-logo</title><rect width="500.34" height="217.35" style="fill:#00b5da"/><line x1="447.11" y1="34.19" x2="447.11" y2="67.02" style="fill:none;stroke:#fff;stroke-linecap:round;stroke-linejoin:round"/><path d="M437.66,58.77a1.54,1.54,0,0,1-.52-.16h-2.85c-1.53.34-3.08.57-4.56,1a21.55,21.55,0,0,0-15.15,23.54A42.44,42.44,0,0,0,419.71,98c4.43,7.94,9.08,15.74,13.64,23.59a1.29,1.29,0,0,1,.11.18c.36.64.78,1.3,1.16,1.94s.62,1,.94,1.53.57.94.87,1.44l.84-1.46.89-1.53,1.12-1.94,1.78-3.08c3.86-7,7.78-13.94,11.5-21a44.28,44.28,0,0,0,4.63-13.64,21.58,21.58,0,0,0-17.5-25Q438.68,58.852,437.66,58.77Zm-1.85,40.35c-11,0-19.34-8.12-19.34-18.89,0-10.61,8.53-18.91,19.44-18.91s19.34,8.12,19.34,18.91c0,10.6-8.53,18.9-19.43,18.9Z" transform="translate(11.17 13.52)" style="fill:#ffed00"/><path d="M451.38,80.66a15.44,15.44,0,1,0-15.4,15.48H436A15.44,15.44,0,0,0,451.38,80.66Zm-25.7-.43c0-5.88,4.15-10.61,10.13-10.61S446,74.45,446,80.23s-4.15,10.6-10.13,10.6S425.68,86,425.68,80.23Z" transform="translate(11.17 13.52)" style="fill:#fff"/><path d="M38.95,73.44l-6.1,1.4-1.91-7.75,10.59-3h7.29v36.44H38.95Z" transform="translate(11.17 13.52)" style="fill:#fff"/><path d="M54,93,67.58,82.64c3.41-2.58,4.65-4.34,4.65-6.51s-1.6-3.67-4-3.67S63.86,73.85,61,77.1l-6.77-5.63c3.88-5,7.7-7.75,14.73-7.75,7.91,0,13.33,4.7,13.33,11.63,0,5.79-2.95,8.84-8.37,12.66l-6.2,4.34H82.67v8.17H54Z" transform="translate(11.17 13.52)" style="fill:#fff"/><path d="M102.1,64.34h18.55c4.55,0,7.75,1.14,9.87,3.26a8,8,0,0,1,2.33,5.94c0,4.19-2.38,6.67-5.58,8.06,4.39,1.45,7.18,3.93,7.18,8.94,0,6.2-5.06,10-13.7,10H102.1Zm16.07,14.42c3,0,4.75-1,4.75-3.26,0-2-1.55-3.1-4.55-3.1h-6.51v6.36Zm1.45,13.7c3,0,4.81-1.19,4.81-3.41,0-2-1.55-3.26-4.91-3.26h-7.65v6.67Z" transform="translate(11.17 13.52)" style="fill:#fff"/><path d="M150.53,64.08h9.67l15.4,36.44H164.85l-2.64-6.46h-14l-2.58,6.46h-10.5Zm8.79,22.17-4-10.29L151.2,86.25Z" transform="translate(11.17 13.52)" style="fill:#fff"/><path d="M179.11,64.34h15.5c9.15,0,15,4.7,15,12.82,0,8.53-6.56,13-15.56,13h-5V100.5h-10Zm14.78,18c3.57,0,5.74-1.86,5.74-4.81,0-3.1-2.17-4.75-5.79-4.75h-4.7v9.56Z" transform="translate(11.17 13.52)" style="fill:#fff"/><path d="M222.73,73.13H211.88V64.34h31.73v8.79H232.76v27.39h-10Z" transform="translate(11.17 13.52)" style="fill:#fff"/><path d="M245.21,82.43c0-10.39,8.37-18.81,19.54-18.81s19.43,8.32,19.43,18.81-8.37,18.81-19.54,18.81S245.21,92.92,245.21,82.43Zm28.74,0c0-5.22-3.77-9.77-9.3-9.77s-9.15,4.44-9.15,9.77,3.77,9.77,9.25,9.77S274,87.75,274,82.43Z" transform="translate(11.17 13.52)" style="fill:#fff"/><path d="M289.4,64.34H308c4.55,0,7.75,1.14,9.87,3.26a8,8,0,0,1,2.33,5.94c0,4.19-2.38,6.67-5.58,8.06,4.39,1.45,7.18,3.93,7.18,8.94,0,6.2-5.06,10-13.7,10H289.4Zm16.07,14.42c3,0,4.75-1,4.75-3.26,0-2-1.55-3.1-4.55-3.1h-6.51v6.36Zm1.45,13.7c3,0,4.81-1.19,4.81-3.41,0-2-1.55-3.26-4.91-3.26h-7.65v6.67Z" transform="translate(11.17 13.52)" style="fill:#fff"/><path d="M326.36,64.34h9.92V84.7l14-20.36h9.35v36.18h-9.92V80.15l-14,20.36h-9.35Z" transform="translate(11.17 13.52)" style="fill:#fff"/><path d="M375.82,82.12,363.93,64.34h11.53l6.41,10.18,6.46-10.18H399.6L387.7,82l12.4,18.5H388.58l-6.92-10.91-7,10.91H363.41Z" transform="translate(11.17 13.52)" style="fill:#fff"/><path d="M56.4,151.12l3.48-4.45a9.28,9.28,0,0,0,6.79,2.86c2.48,0,3.69-1,3.69-2.38S69.15,145,66.49,145H64v-5h2.45c2.41,0,3.41-.93,3.41-2.21s-1.17-2.1-3-2.1a10.18,10.18,0,0,0-6.2,2.38l-3.31-3.93a13.69,13.69,0,0,1,10.1-4.1c5.38,0,9,2.76,9,6.51a5.64,5.64,0,0,1-3.62,5.48c2.45.83,4.24,2.55,4.24,5.58,0,4.31-3.65,7.48-9.58,7.48C61.95,155.16,59.09,153.5,56.4,151.12Z" transform="translate(11.17 13.52)" style="fill:#fff"/><path d="M79.83,136.07h6.55v6.62h5.38v-6.62H98.3v18.64H91.75V148H86.38v6.75H79.83Z" transform="translate(11.17 13.52)" style="fill:#fff"/><path d="M100.88,149.3c0-3.86,2.93-5.86,7.3-5.86a14.3,14.3,0,0,1,4.48.72v-.31c0-1.93-1.21-3-3.72-3a13.13,13.13,0,0,0-5.13,1l-1.34-4.62a18.72,18.72,0,0,1,7.54-1.45c3.34,0,5.62.79,7.1,2.27s2,3.31,2,5.93v10.71h-6.48v-1.93a7,7,0,0,1-5.48,2.34C103.6,155.12,100.88,153.09,100.88,149.3Zm11.86-1.3v-.86a6.87,6.87,0,0,0-2.55-.48c-1.9,0-3,.93-3,2.38a2.05,2.05,0,0,0,2.31,2,3,3,0,0,0,3.231-2.75Q112.742,148.145,112.74,148Z" transform="translate(11.17 13.52)" style="fill:#fff"/><path d="M122.45,136.07h6.34v9.34l6.2-9.34h6v18.64h-6.34v-9.34l-6.2,9.34h-6Zm3.76-6.65,3.41-.62c.41,1.21,1.07,2,2.27,2s1.86-.79,2.27-2l3.41.62c-.48,3.27-2.58,5.13-5.69,5.13s-5.19-1.86-5.67-5.13Z" transform="translate(11.17 13.52)" style="fill:#fff"/><path d="M143.12,149.44h1.72c1.07-3.07,1.65-6,1.65-12.47v-.9H163.1v13.37h2.17l-.62,9.06h-5.58v-3.79h-9.75L149,158.5h-5.86Zm13.4,0v-8.17h-3.79v.31a27.85,27.85,0,0,1-1.21,7.86Z" transform="translate(11.17 13.52)" style="fill:#fff"/><path d="M166.28,145.4c0-5.44,3.89-9.75,9.41-9.75,6.44,0,9.41,4.72,9.41,10.2v1.34H172.58a3.85,3.85,0,0,0,4,3.07,5.62,5.62,0,0,0,4.13-1.9l3.62,3a9.76,9.76,0,0,1-8.1,3.79C170.41,155.16,166.28,151.26,166.28,145.4ZM179,143.85c-.24-2.07-1.45-3.38-3.24-3.38s-2.89,1.34-3.24,3.38Z" transform="translate(11.17 13.52)" style="fill:#fff"/><path d="M187.88,136.07h6.55v6.62h5.38v-6.62h6.55v18.64H199.8V148h-5.37v6.75h-6.55Z" transform="translate(11.17 13.52)" style="fill:#fff"/><path d="M209.11,145.4c0-5.31,4.34-9.75,10.34-9.75s10.27,4.38,10.27,9.75-4.34,9.75-10.34,9.75S209.11,150.78,209.11,145.4Zm14.23,0a4,4,0,0,0-3.795-4.195q-.1-.005-.205-.005a3.92,3.92,0,0,0-3.9,3.94q0,.13.01.26a4,4,0,0,0,3.795,4.195q.1.005.205.005a3.92,3.92,0,0,0,3.9-3.94Q223.349,145.53,223.34,145.4Z" transform="translate(11.17 13.52)" style="fill:#fff"/><path d="M242,136.07h11.06a6.88,6.88,0,0,1,5.1,1.69,4,4,0,0,1,1.21,3,4.34,4.34,0,0,1-2.89,4.17c2.27.76,3.55,2,3.55,4.62,0,3.2-2.62,5.13-7.06,5.13H242Zm8.58,7.41c1.52,0,2.34-.65,2.34-1.65s-.79-1.58-2.24-1.58h-2.31v3.24Zm.48,7c1.55,0,2.41-.69,2.41-1.76S252.69,147,251,147h-2.62v3.48Z" transform="translate(11.17 13.52)" style="fill:#fff"/><path d="M272.78,153.43l2.62-4.82a5.11,5.11,0,0,0,2.72.83,2.75,2.75,0,0,0,2.1-1l-9.44-17.81h7.44l5.48,11.34,5.17-11.34h7.27L286.73,149c-2.21,4.31-4.44,6.06-8.17,6.06A11,11,0,0,1,272.78,153.43Z" transform="translate(11.17 13.52)" style="fill:#fff"/><path d="M296.38,136.07h6.55V143l5.06-6.92h7.41l-6.4,7.64,6.55,11h-7.2l-3.55-6L302.93,151v3.69h-6.55Z" transform="translate(11.17 13.52)" style="fill:#fff"/><path d="M317.16,136.07h6.55v2.48a6.84,6.84,0,0,1,5.65-2.89c4.44,0,8.27,3.69,8.27,9.72s-3.82,9.75-8.23,9.75a7,7,0,0,1-5.68-2.69v7.79h-6.55Zm14,9.27a3.94,3.94,0,0,0-3.67-4.193l-.15-.007c-2.1,0-3.79,1.76-3.79,4.27a3.94,3.94,0,0,0,3.626,4.231q.082.006.164.009c2.15-.01,3.84-1.73,3.84-4.31Z" transform="translate(11.17 13.52)" style="fill:#fff"/><path d="M339.52,149.3c0-3.86,2.93-5.86,7.3-5.86a14.3,14.3,0,0,1,4.48.72v-.31c0-1.93-1.21-3-3.72-3a13.13,13.13,0,0,0-5.13,1l-1.34-4.62a18.72,18.72,0,0,1,7.54-1.45c3.34,0,5.62.79,7.1,2.27s2,3.31,2,5.93v10.71h-6.48v-1.93a7,7,0,0,1-5.48,2.34C342.24,155.12,339.52,153.09,339.52,149.3Zm11.85-1.3v-.86a6.87,6.87,0,0,0-2.55-.48c-1.9,0-3,.93-3,2.38a2.05,2.05,0,0,0,2.31,2,3,3,0,0,0,3.231-2.75Q351.372,148.145,351.37,148Z" transform="translate(11.17 13.52)" style="fill:#fff"/><path d="M357.89,129.56h5.69v4.93h-5.69Zm3.34,6.51h6.55v18.64h-6.55Zm4.2-6.51h5.68v4.93h-5.68Z" transform="translate(11.17 13.52)" style="fill:#fff"/><path d="M371.43,136.07H378v6.62h5.38v-6.62h6.55v18.64h-6.55V148H378v6.75h-6.55Z" transform="translate(11.17 13.52)" style="fill:#fff"/><path d="M393.41,129.56h6.82v4.82h-6.82Zm.14,6.51h6.55v18.64h-6.55Z" transform="translate(11.17 13.52)" style="fill:#fff"/><line x1="43.64" y1="34.13" x2="447.11" y2="34.13" style="fill:none;stroke:#fff;stroke-linecap:round;stroke-linejoin:round"/><line x1="447.11" y1="146.01" x2="447.11" y2="212.36" style="fill:none;stroke:#fff;stroke-linecap:round;stroke-linejoin:round"/></svg>
