<?xml version="1.0" encoding="utf-8"?>
<!-- Generator: Adobe Illustrator 21.0.2, SVG Export Plug-In . SVG Version: 6.00 Build 0)  -->
<svg version="1.1" id="Layer_1" xmlns="http://www.w3.org/2000/svg" xmlns:xlink="http://www.w3.org/1999/xlink" x="0px" y="0px"
	 viewBox="0 0 55 93" style="enable-background:new 0 0 55 93;" xml:space="preserve">
<style type="text/css">
	.st0{fill:#FFFFFF;}
	.st1{fill:#EB5757;}
</style>
<title>Group</title>
<desc>Created using Figma</desc>
<g>
	<path class="st0" d="M31.4,85.4c-0.1-0.3-0.2-0.5-0.4-0.7c-0.2-0.2-0.4-0.3-0.7-0.5c-0.2-0.1-0.5-0.2-0.8-0.2
		c-0.3,0-0.5,0.1-0.8,0.2c-0.2,0.1-0.5,0.3-0.6,0.5c-0.2,0.2-0.3,0.4-0.4,0.7s-0.1,0.5-0.1,0.8c0,0.3,0,0.5,0.1,0.8
		c0.1,0.3,0.2,0.5,0.4,0.7c0.2,0.2,0.4,0.3,0.7,0.5c0.2,0.1,0.5,0.2,0.8,0.2c0.3,0,0.5-0.1,0.8-0.2c0.2-0.1,0.5-0.3,0.7-0.5
		c0.2-0.2,0.3-0.4,0.4-0.7c0.1-0.3,0.1-0.5,0.1-0.8h0C31.5,85.9,31.5,85.6,31.4,85.4z"/>
	<polygon class="st0" points="11.3,86.8 13.3,86.8 12.3,84.4 	"/>
	<path class="st0" d="M18.6,84.2h-1.2v2.1l1.2,0c0.8,0,1.3-0.4,1.3-1.1S19.3,84.2,18.6,84.2z"/>
	<path class="st0" d="M7.5,84.9c0-0.5-0.4-0.7-1-0.7H4.9v1.6l1.4,0C7,85.7,7.5,85.4,7.5,84.9z"/>
	<path class="st0" d="M6.6,86.6H4.9v1.6h1.7c0.7,0,1.1-0.3,1.1-0.8S7.4,86.6,6.6,86.6z"/>
	<path class="st0" d="M37.3,84.9c0-0.5-0.4-0.7-1-0.7h-1.5v1.6l1.4,0C36.9,85.7,37.3,85.4,37.3,84.9z"/>
	<path class="st0" d="M0,0v93h55V0H0z M26.4,21c1-0.7,2.2-1,3.4-1l0,0c1.6,0,3.2,0.7,4.3,1.8s1.8,2.7,1.8,4.4c0,0.4,0.1,0.7,0.4,1
		c0.3,0.3,0.6,0.4,1,0.4c0.4,0,0.7-0.1,1-0.4c0.3-0.3,0.4-0.6,0.4-1c0-1,0.3-2,0.7-2.9c0.5-0.9,1.2-1.7,2-2.2c0.8-0.6,1.8-0.9,2.8-1
		c1-0.1,2,0.1,3,0.4c0.9,0.4,1.8,1,2.4,1.8c0.6,0.8,1.1,1.7,1.3,2.7c0.2,1,0.1,2-0.1,3c-0.3,1-0.8,1.9-1.5,2.6l-11.9,12l-11.9-12
		c-0.9-0.9-1.5-2-1.7-3.2c-0.2-1.2-0.1-2.4,0.3-3.6C24.6,22.7,25.3,21.7,26.4,21z M25.6,18.2c1.3-1.9,3-3.5,5.1-4.7
		c2.1-1.1,4.3-1.7,6.7-1.7l0,0c2.3,0,4.6,0.6,6.7,1.7c2.1,1.1,3.8,2.7,5.1,4.7c-2-1.1-4.3-1.4-6.5-0.8c-2.2,0.6-4.1,2-5.3,3.9
		c-1.2-1.9-3.1-3.3-5.3-3.9C29.9,16.9,27.5,17.2,25.6,18.2z M51.3,57.2L39,44.9l12.3-12.3c0,0,0,0,0,0V57.2z M36.3,45.5
		c0.1,0.1,0.3,0.2,0.5,0.3c0.2,0.1,0.4,0.1,0.5,0.1h0.1l13.8,13.9v11.7L25.8,46c-0.9-0.9-1.5-1.9-2-3c-0.5-1.1-0.7-2.3-0.7-3.5v-7.2
		c0.1,0.1,0.2,0.2,0.3,0.3L36.3,45.5z M51.3,4v14.2c-1.1-1.9-2.5-3.5-4.2-4.9c-2.8-2.1-6.2-3.3-9.7-3.3s-6.9,1.2-9.7,3.3
		c-2.8,2.1-4.8,5.1-5.7,8.6c-0.6,1.1-1,2.3-1.1,3.6c-0.1,1.3,0.1,2.5,0.5,3.7v10.3c0,1.5,0.3,2.9,0.8,4.2s1.4,2.6,2.4,3.6l26.7,26.9
		v7H31.9v-3.9h-9.1l3.4-2.6c3.7-2.9,5.5-4.6,5.5-8.2c0-4-2.9-6.6-7.2-6.6c-3.7,0-5.8,1.5-7.8,4.4l3.2,2.6c1.6-1.9,2.7-2.8,4.3-2.8
		s2.8,1,2.8,2.7s-1,2.9-3.6,5.1l-7,5.8l0,3.6h-4.2V60H9l-5,1.5V4H51.3z M4,65.6L4,65.6l3.7-0.9l0,16.4H4V65.6z M6.7,89.1H3.9v-5.8
		h2.6c0.5,0,1.1,0.1,1.5,0.5c0.1,0.1,0.2,0.3,0.3,0.5c0.1,0.2,0.1,0.4,0.1,0.5c0,0.3-0.1,0.5-0.2,0.8S7.9,85.9,7.6,86
		c0.3,0.1,0.6,0.2,0.9,0.5s0.3,0.6,0.3,0.9C8.8,88.5,8,89.1,6.7,89.1z M14.3,89.1l-0.6-1.4H11l-0.6,1.4h-1l2.6-5.9h1l2.6,5.9H14.3z
		 M18.6,87.2h-1.2v1.9h-1l0-5.9h2.3c1.4,0,2.2,0.8,2.2,2C20.9,86.5,19.8,87.2,18.6,87.2z M26.1,84.2h-1.8v4.9h-1v-4.9h-1.8v-1h4.7
		V84.2z M32.4,87.3c-0.2,0.6-0.6,1-1.1,1.4c-0.5,0.3-1.1,0.5-1.7,0.5c-0.4,0-0.8-0.1-1.2-0.2c-0.4-0.1-0.7-0.4-1-0.7
		c-0.3-0.3-0.5-0.6-0.7-1s-0.2-0.8-0.2-1.2c0-0.6,0.2-1.2,0.5-1.7c0.3-0.5,0.8-0.9,1.4-1.1s1.2-0.3,1.8-0.2c0.6,0.1,1.1,0.4,1.6,0.8
		c0.4,0.4,0.7,1,0.8,1.6S32.6,86.7,32.4,87.3z M36.5,89.1h-2.7v-5.8h2.6c0.5,0,1.1,0.1,1.5,0.5c0.1,0.1,0.2,0.3,0.3,0.5
		c0.1,0.2,0.1,0.4,0.1,0.5c0,0.3-0.1,0.5-0.2,0.8s-0.4,0.4-0.6,0.5c0.3,0.1,0.6,0.2,0.8,0.5s0.3,0.6,0.3,0.9
		C38.7,88.5,37.8,89.1,36.5,89.1z M44.7,89.1h-1v-4.3l-2.9,4.3h-1v-5.9h1v4.3l2.9-4.3h1V89.1z M50.1,89.1l-1.5-2.2L47,89.1h-1.2
		l2.1-3l-2-2.9h1.2l1.5,2.1l1.5-2.1h1.2l-2,2.9l2.1,3H50.1z"/>
	<path class="st0" d="M36.5,86.6h-1.6v1.6h1.7c0.7,0,1.1-0.3,1.1-0.8S37.3,86.6,36.5,86.6z"/>
	<path class="st1" d="M32.1,17.4c2.2,0.6,4.1,2,5.3,3.9c1.2-1.9,3.1-3.3,5.3-3.9c2.2-0.6,4.5-0.3,6.5,0.8c-1.3-2-3.1-3.6-5.1-4.7
		c-2.1-1.1-4.4-1.7-6.7-1.7l0,0c-2.3,0-4.6,0.6-6.7,1.7c-2.1,1.1-3.8,2.7-5.1,4.7C27.5,17.2,29.9,16.9,32.1,17.4z"/>
	<path class="st1" d="M23.7,27.4c0.2,1.2,0.8,2.3,1.7,3.2l11.9,12l11.9-12c0.7-0.7,1.2-1.6,1.5-2.6c0.3-1,0.3-2,0.1-3
		c-0.2-1-0.6-1.9-1.3-2.7c-0.6-0.8-1.5-1.4-2.4-1.8c-0.9-0.4-1.9-0.5-3-0.4c-1,0.1-2,0.4-2.8,1c-0.8,0.6-1.5,1.3-2,2.2
		c-0.5,0.9-0.7,1.9-0.7,2.9c0,0.4-0.1,0.7-0.4,1c-0.3,0.3-0.6,0.4-1,0.4c-0.4,0-0.7-0.1-1-0.4c-0.3-0.3-0.4-0.6-0.4-1
		c0-1.6-0.6-3.2-1.8-4.4S31.4,20,29.8,20l0,0c-1.2,0-2.4,0.4-3.4,1c-1,0.7-1.8,1.6-2.3,2.8C23.6,24.9,23.5,26.2,23.7,27.4z
		 M44.9,23.6c1.4,0,2.5,1.1,2.5,2.5c0,1.4-1.1,2.5-2.5,2.5c-1.4,0-2.5-1.1-2.5-2.5C42.4,24.8,43.5,23.6,44.9,23.6z M29.8,23.6
		c1.4,0,2.5,1.1,2.5,2.5c0,1.4-1.1,2.5-2.5,2.5c-1.4,0-2.5-1.1-2.5-2.5C27.3,24.8,28.4,23.6,29.8,23.6z"/>
	<path class="st1" d="M39,44.9l12.3,12.4V32.5c0,0,0,0,0,0L39,44.9z"/>
	<polygon class="st1" points="7.6,64.7 4,65.6 4,65.6 4,81.1 7.6,81.1 	"/>
	<path class="st1" d="M9,60h3.1v21.1h4.2l0-3.6l7-5.8c2.6-2.2,3.6-3.3,3.6-5.1S25.8,64,24.2,64s-2.7,0.9-4.3,2.8l-3.2-2.6
		c2.1-2.8,4.1-4.4,7.8-4.4c4.3,0,7.2,2.6,7.2,6.6c0,3.5-1.8,5.3-5.5,8.2l-3.4,2.6h9.1v3.9h19.4v-7L24.5,47.3c-1-1-1.8-2.2-2.4-3.6
		s-0.8-2.8-0.8-4.2V29.2c-0.4-1.2-0.6-2.4-0.5-3.7c0.1-1.3,0.5-2.5,1.1-3.6c0.9-3.4,2.9-6.4,5.7-8.6c2.8-2.1,6.2-3.3,9.7-3.3
		s6.9,1.2,9.7,3.3c1.7,1.3,3.2,3,4.2,4.9V4H4v57.5L9,60z"/>
	<path class="st1" d="M23.1,32.2v7.2c0,1.2,0.2,2.4,0.7,3.5c0.5,1.1,1.1,2.1,2,3l25.4,25.6V59.8L37.5,45.9h-0.1
		c-0.2,0-0.4,0-0.5-0.1c-0.2-0.1-0.3-0.2-0.5-0.3l-12.9-13C23.3,32.4,23.2,32.3,23.1,32.2z"/>
	<path class="st1" d="M7.6,86c0.3-0.1,0.5-0.3,0.6-0.5s0.2-0.5,0.2-0.8c0-0.2,0-0.4-0.1-0.5c-0.1-0.2-0.2-0.3-0.3-0.5
		c-0.4-0.4-1-0.5-1.5-0.5H3.9v5.8h2.7c1.3,0,2.2-0.6,2.2-1.6c0-0.3-0.1-0.7-0.3-0.9S8,86.1,7.6,86z M4.9,84.1h1.5c0.6,0,1,0.3,1,0.7
		c0,0.5-0.4,0.8-1.1,0.8l-1.4,0V84.1z M6.7,88.2H4.9v-1.6h1.6c0.8,0,1.2,0.2,1.2,0.8S7.4,88.2,6.7,88.2z"/>
	<path class="st1" d="M11.9,83.2l-2.6,5.9h1l0.6-1.4h2.8l0.6,1.4h1.1l-2.6-5.9H11.9z M11.3,86.8l1-2.3l1,2.3H11.3z"/>
	<path class="st1" d="M18.7,83.2h-2.3l0,5.9h1v-1.9h1.2c1.3,0,2.3-0.7,2.3-2C20.9,84,20,83.2,18.7,83.2z M18.6,86.3l-1.2,0v-2.1h1.2
		c0.8,0,1.3,0.4,1.3,1S19.4,86.3,18.6,86.3z"/>
	<polygon class="st1" points="21.3,84.2 23.2,84.2 23.2,89.1 24.2,89.1 24.2,84.2 26.1,84.2 26.1,83.2 21.3,83.2 	"/>
	<path class="st1" d="M31.7,83.9c-0.4-0.4-1-0.7-1.6-0.8c-0.6-0.1-1.2,0-1.8,0.2s-1,0.6-1.4,1.1c-0.3,0.5-0.5,1.1-0.5,1.7
		c0,0.4,0.1,0.8,0.2,1.2s0.4,0.7,0.7,1c0.3,0.3,0.6,0.5,1,0.7c0.4,0.1,0.8,0.2,1.2,0.2c0.6,0,1.2-0.2,1.7-0.5
		c0.5-0.3,0.9-0.8,1.1-1.4c0.2-0.6,0.3-1.2,0.2-1.8S32.1,84.4,31.7,83.9z M31.4,87c-0.1,0.3-0.2,0.5-0.4,0.7
		c-0.2,0.2-0.4,0.3-0.7,0.5c-0.2,0.1-0.5,0.2-0.8,0.2c-0.3,0-0.5-0.1-0.8-0.2c-0.2-0.1-0.5-0.3-0.7-0.5c-0.2-0.2-0.3-0.4-0.4-0.7
		c-0.1-0.3-0.1-0.5-0.1-0.8c0-0.3,0-0.5,0.1-0.8s0.2-0.5,0.4-0.7c0.2-0.2,0.4-0.3,0.6-0.5c0.2-0.1,0.5-0.2,0.8-0.2
		c0.3,0,0.5,0.1,0.8,0.2c0.2,0.1,0.5,0.3,0.7,0.5c0.2,0.2,0.3,0.4,0.4,0.7c0.1,0.3,0.1,0.5,0.1,0.8h0C31.5,86.4,31.5,86.7,31.4,87z"
		/>
	<path class="st1" d="M37.5,86c0.3-0.1,0.5-0.3,0.6-0.5s0.2-0.5,0.2-0.8c0-0.2,0-0.4-0.1-0.5c-0.1-0.2-0.2-0.3-0.3-0.5
		c-0.4-0.4-1-0.5-1.5-0.5h-2.6v5.8h2.7c1.3,0,2.2-0.6,2.2-1.6c0-0.3-0.1-0.7-0.3-0.9S37.8,86.1,37.5,86z M34.8,84.1h1.5
		c0.6,0,1,0.3,1,0.7c0,0.5-0.4,0.8-1.1,0.8l-1.4,0V84.1z M36.5,88.2h-1.7v-1.6h1.6c0.8,0,1.2,0.2,1.2,0.8S37.2,88.2,36.5,88.2z"/>
	<polygon class="st1" points="40.8,87.5 40.8,83.2 39.8,83.2 39.8,89.1 40.8,89.1 43.7,84.8 43.7,89.1 44.7,89.1 44.7,83.2 
		43.8,83.2 	"/>
	<polygon class="st1" points="51.2,83.2 50,83.2 48.6,85.3 47.1,83.2 45.9,83.2 47.9,86.1 45.8,89.1 47,89.1 48.5,86.9 50.1,89.1 
		51.3,89.1 49.2,86.1 	"/>
	<ellipse class="st0" cx="29.8" cy="26.2" rx="2.5" ry="2.5"/>
	<ellipse class="st0" cx="44.9" cy="26.2" rx="2.5" ry="2.5"/>
</g>
</svg>
