<svg xmlns="http://www.w3.org/2000/svg" viewBox="0 0 222.364 101.35"><title>12-guards-logo</title><rect x="0.156" width="222.208" height="101.339" style="fill:#00b5da"/><polygon points="121.182 67.142 124.225 67.142 122.702 63.426 121.182 67.142" style="fill:none"/><path d="M143.951,82.287c0-.371-.29-.58-.813-.58h-1.223V82.9h1.143C143.606,82.9,143.951,82.721,143.951,82.287Z" transform="translate(0.156)" style="fill:none"/><path d="M150.5,63.916a14.376,14.376,0,0,1-1.031,5.747h4.42V62.754H150.5Z" transform="translate(0.156)" style="fill:none"/><polygon points="168.404 83.927 169.896 83.927 169.15 82.105 168.404 83.927" style="fill:none"/><path d="M143.348,83.93h-1.434V85.17h1.472c.549,0,.879-.193.879-.629C144.265,84.164,143.983,83.93,143.348,83.93Z" transform="translate(0.156)" style="fill:none"/><path d="M163.746,81.777h-.955v1.717h.98a.872.872,0,0,0,.979-.867C164.75,82.072,164.364,81.777,163.746,81.777Z" transform="translate(0.156)" style="fill:none"/><path d="M97.454,66a2.731,2.731,0,0,0,1.85-2.634c0-1.785-1.686-3.079-4.141-3.079a5.935,5.935,0,0,0-4.616,1.883l1.325,1.6a4.009,4.009,0,0,1,3.094-1.26c1.1,0,1.85.474,1.85,1.276,0,.868-.72,1.326-2.046,1.326H93.476v2.1H94.8c1.31,0,2.275.393,2.275,1.343,0,.884-.867,1.375-1.931,1.375a5.058,5.058,0,0,1-3.65-1.456L90.153,70.22a6.487,6.487,0,0,0,5.091,1.915c2.669,0,4.356-1.457,4.356-3.437A2.751,2.751,0,0,0,97.454,66Z" transform="translate(0.156)" style="fill:#fff"/><polygon points="110.534 65.013 105.885 65.013 105.885 60.479 103.364 60.479 103.364 71.941 105.885 71.941 105.885 67.339 110.534 67.339 110.534 71.941 113.054 71.941 113.054 60.479 110.534 60.479 110.534 65.013" style="fill:#fff"/><path d="M121.417,60.4l-4.911,11.544h2.571l1.048-2.571h4.844l1.048,2.571h2.636L123.741,60.4Zm-.391,6.745,1.521-3.716,1.522,3.716Z" transform="translate(0.156)" style="fill:#fff"/><path d="M137.446,58.827a2.645,2.645,0,0,0,2.751-2.488l-1.457-.262a1.311,1.311,0,0,1-2.587,0l-1.457.262A2.646,2.646,0,0,0,137.446,58.827Z" transform="translate(0.156)" style="fill:#fff"/><polygon points="142.288 71.941 142.288 60.479 139.947 60.479 134.904 67.993 134.904 60.479 132.416 60.479 132.416 71.941 134.79 71.941 139.799 64.423 139.799 71.941 142.288 71.941" style="fill:#fff"/><path d="M157.46,74.329l.328-4.666h-1.375V60.479h-8.332v1.343c0,3.912-.41,5.861-1.262,7.842h-1.08v4.666h2.278l.161-2.388h7.17v2.388Zm-3.568-4.666h-4.42a14.376,14.376,0,0,0,1.031-5.747V62.754h3.389Z" transform="translate(0.156)" style="fill:#fff"/><polygon points="170.277 69.696 164.055 69.696 164.055 67.289 169.458 67.289 169.458 65.047 164.055 65.047 164.055 62.722 170.196 62.722 170.196 60.479 161.552 60.479 161.552 71.941 170.277 71.941 170.277 69.696" style="fill:#fff"/><polygon points="181.055 60.479 181.055 65.013 176.406 65.013 176.406 60.479 173.885 60.479 173.885 71.941 176.406 71.941 176.406 67.339 181.055 67.339 181.055 71.941 183.577 71.941 183.577 60.479 181.055 60.479" style="fill:#fff"/><path d="M144.442,83.309a1.39,1.39,0,0,0,.355-2.191,2.035,2.035,0,0,0-1.474-.5h-2.618v5.638h2.68c1.274,0,2.111-.517,2.111-1.547A1.384,1.384,0,0,0,144.442,83.309Zm-2.528-1.6h1.223c.523,0,.813.21.813.58,0,.433-.345.611-.893.611h-1.143Zm1.472,3.463h-1.472V83.93h1.434c.635,0,.918.234.918.612C144.265,84.978,143.936,85.17,143.386,85.17Z" transform="translate(0.156)" style="fill:#fff"/><path d="M151.863,83.629,150.34,80.66h-1.381l2.247,4.2a.839.839,0,0,1-.705.45,1.254,1.254,0,0,1-.667-.185l-.48.907a2.356,2.356,0,0,0,1.211.329c.786,0,1.348-.385,1.837-1.366l2.16-4.341h-1.341Z" transform="translate(0.156)" style="fill:#fff"/><polygon points="160.701 80.66 159.209 80.66 156.93 83.114 156.93 80.66 155.695 80.66 155.695 86.277 156.93 86.277 156.93 84.561 157.58 83.886 159.322 86.277 160.807 86.277 158.415 83.044 160.701 80.66" style="fill:#fff"/><path d="M163.85,80.66h-2.294v5.617h1.235V84.592h.94A2.007,2.007,0,0,0,166,82.618,1.928,1.928,0,0,0,163.85,80.66Zm-.079,2.833h-.98V81.777h.955c.618,0,1,.3,1,.85A.872.872,0,0,1,163.771,83.493Z" transform="translate(0.156)" style="fill:#fff"/><path d="M168.44,80.62l-2.407,5.657h1.26l.513-1.26h2.375l.513,1.26h1.293L169.58,80.62Zm-.191,3.308.746-1.823.746,1.823Z" transform="translate(0.156)" style="fill:#fff"/><rect x="174.118" y="79.136" width="1.17" height="1.083" style="fill:#fff"/><rect x="173.227" y="80.66" width="1.235" height="5.617" style="fill:#fff"/><rect x="172.399" y="79.136" width="1.173" height="1.083" style="fill:#fff"/><polygon points="179.541 82.883 177.262 82.883 177.262 80.66 176.026 80.66 176.026 86.277 177.262 86.277 177.262 84.022 179.541 84.022 179.541 86.277 180.777 86.277 180.777 80.66 179.541 80.66 179.541 82.883" style="fill:#fff"/><rect x="182.341" y="80.66" width="1.236" height="5.617" style="fill:#fff"/><line x1="195.359" y1="82.18" x2="195.359" y2="101.1" style="fill:none;stroke:#fff;stroke-linecap:round;stroke-linejoin:round;stroke-width:0.5px"/><polyline points="0.25 46.377 195.29 46.377 195.29 59.472" style="fill:none;stroke:#fff;stroke-linecap:round;stroke-linejoin:round;stroke-width:0.5px"/><path d="M195.631,58.885a4.817,4.817,0,0,0-.6-.073c-.2-.009-.443.024-.577.025a9.286,9.286,0,0,0-1.6.351,7.522,7.522,0,0,0-5.29,8.227,14.753,14.753,0,0,0,1.794,5.194c1.542,2.773,3.173,5.5,4.768,8.242l.04.066c.131.224.273.453.409.676.107.176.213.354.322.533s.2.334.307.508l.294-.509.308-.534.391-.678.625-1.083c1.35-2.443,2.721-4.872,4.02-7.338a15.686,15.686,0,0,0,1.621-4.772A7.545,7.545,0,0,0,195.631,58.885Zm-.645,14.108a6.54,6.54,0,0,1-6.762-6.61,6.633,6.633,0,0,1,6.8-6.611,6.54,6.54,0,0,1,6.761,6.611A6.632,6.632,0,0,1,194.986,72.993Z" transform="translate(0.156)" style="fill:#ffed00"/><path d="M198.559,66.383a3.586,3.586,0,0,0-3.573-3.709,3.54,3.54,0,0,0-3.54,3.709,3.584,3.584,0,0,0,3.574,3.707A3.537,3.537,0,0,0,198.559,66.383Z" transform="translate(0.156)" style="fill:none"/><path d="M195.019,60.282a6.1,6.1,0,1,0,6.25,6.1A6.1,6.1,0,0,0,195.019,60.282Zm-3.574,6.1a3.54,3.54,0,0,1,3.54-3.709,3.586,3.586,0,0,1,3.573,3.709,3.537,3.537,0,0,1-3.54,3.707A3.584,3.584,0,0,1,191.446,66.383Z" transform="translate(0.156)" style="fill:#fff"/><path d="M65.012,26.5H61.46v3.1h3.6c1.416,0,2.232-.552,2.232-1.584C67.292,27.1,66.573,26.5,65.012,26.5Z" transform="translate(0.156)" style="fill:none"/><polygon points="79.881 26.711 83.649 26.711 81.777 21.935 79.881 26.711" style="fill:none"/><path d="M99.524,20.447H97.34v4.44h2.208c1.656,0,2.665-.864,2.665-2.232C102.213,21.215,101.2,20.447,99.524,20.447Z" transform="translate(0.156)" style="fill:none"/><path d="M66.6,21.719c0-.912-.72-1.44-2.112-1.44H61.46v2.952h2.928C65.8,23.231,66.6,22.751,66.6,21.719Z" transform="translate(0.156)" style="fill:none"/><path d="M132.4,20.4a4.3,4.3,0,0,0-4.249,4.536,4.362,4.362,0,0,0,4.3,4.537,4.3,4.3,0,0,0,4.272-4.537A4.366,4.366,0,0,0,132.4,20.4Z" transform="translate(0.156)" style="fill:none"/><path d="M151.988,26.5h-3.552v3.1h3.6c1.416,0,2.232-.552,2.232-1.584C154.268,27.1,153.548,26.5,151.988,26.5Z" transform="translate(0.156)" style="fill:none"/><path d="M153.572,21.719c0-.912-.72-1.44-2.112-1.44h-3.024v2.952h2.928C152.78,23.231,153.572,22.751,153.572,21.719Z" transform="translate(0.156)" style="fill:none"/><polygon points="24.032 17.807 24.92 21.407 27.752 20.759 27.752 33.336 32.337 33.336 32.337 16.414 28.953 16.414 24.032 17.807" style="fill:#fdeb19"/><path d="M43.845,27.527c2.521-1.776,3.889-3.192,3.889-5.88,0-3.216-2.521-5.4-6.193-5.4-3.264,0-5.04,1.272-6.84,3.6l3.144,2.616c1.32-1.512,2.208-2.16,3.336-2.16a1.674,1.674,0,0,1,1.872,1.7c0,1.008-.576,1.824-2.16,3.024l-6.289,4.8v3.5H47.9V29.543H40.965Z" transform="translate(0.156)" style="fill:#fdeb19"/><path d="M68.613,24.551a3.889,3.889,0,0,0,2.592-3.745,3.721,3.721,0,0,0-1.08-2.76,6.2,6.2,0,0,0-4.584-1.512H56.924v16.8h8.665c4.008,0,6.36-1.752,6.36-4.632C71.949,26.375,70.653,25.223,68.613,24.551ZM61.46,20.279h3.024c1.392,0,2.112.528,2.112,1.44,0,1.032-.792,1.512-2.208,1.512H61.46Zm3.6,9.313h-3.6V26.5h3.552c1.561,0,2.28.6,2.28,1.512C67.292,29.039,66.477,29.592,65.061,29.592Z" transform="translate(0.156)" style="fill:#fdeb19"/><path d="M79.413,16.414,72.26,33.336h4.9l1.2-3h6.48l1.224,3h4.992L83.9,16.414Zm.312,10.3,1.9-4.776,1.872,4.776Z" transform="translate(0.156)" style="fill:#fdeb19"/><path d="M99.885,16.535h-7.2v16.8H97.34v-4.8h2.3c4.176,0,7.225-2.088,7.225-6.049C106.869,18.719,104.133,16.535,99.885,16.535Zm-.336,8.353H97.34v-4.44h2.184c1.68,0,2.688.768,2.688,2.208C102.213,24.023,101.2,24.887,99.548,24.887Z" transform="translate(0.156)" style="fill:#fdeb19"/><polygon points="108.056 20.615 113.096 20.615 113.096 33.336 117.752 33.336 117.752 20.615 122.793 20.615 122.793 16.535 108.056 16.535 108.056 20.615" style="fill:#fdeb19"/><path d="M132.452,16.2a8.742,8.742,0,1,0,9.025,8.737A8.8,8.8,0,0,0,132.452,16.2Zm0,13.273a4.362,4.362,0,0,1-4.3-4.537A4.3,4.3,0,0,1,132.4,20.4a4.366,4.366,0,0,1,4.32,4.536A4.3,4.3,0,0,1,132.452,29.472Z" transform="translate(0.156)" style="fill:#fdeb19"/><path d="M155.588,24.551a3.889,3.889,0,0,0,2.592-3.745,3.721,3.721,0,0,0-1.08-2.76,6.2,6.2,0,0,0-4.584-1.512H143.9v16.8h8.665c4.008,0,6.36-1.752,6.36-4.632C158.924,26.375,157.628,25.223,155.588,24.551Zm-7.153-4.272h3.024c1.392,0,2.112.528,2.112,1.44,0,1.032-.792,1.512-2.208,1.512h-2.928Zm3.6,9.313h-3.6V26.5h3.552c1.561,0,2.28.6,2.28,1.512C154.268,29.039,153.452,29.592,152.036,29.592Z" transform="translate(0.156)" style="fill:#fdeb19"/><polygon points="165.824 25.991 165.824 16.535 161.216 16.535 161.216 33.336 165.56 33.336 172.064 23.879 172.064 33.336 176.673 33.336 176.673 16.535 172.329 16.535 165.824 25.991" style="fill:#fdeb19"/><polygon points="189.704 24.743 195.225 16.535 189.992 16.535 186.992 21.263 184.016 16.535 178.663 16.535 184.184 24.791 178.423 33.336 183.656 33.336 186.896 28.271 190.112 33.336 195.465 33.336 189.704 24.743" style="fill:#fdeb19"/></svg>