<svg xmlns="http://www.w3.org/2000/svg" viewBox="0 0 222.37 101.35"><title>12-guards-logo</title><rect x="0.16" width="222.21" height="101.34" style="fill:#00b5da"/><path d="M97.45,66a2.73,2.73,0,0,0,1.85-2.63c0-1.78-1.69-3.08-4.14-3.08a5.94,5.94,0,0,0-4.62,1.88l1.33,1.6A4,4,0,0,1,95,62.51c1.1,0,1.85.47,1.85,1.28s-.72,1.33-2,1.33H93.48v2.1H94.8c1.31,0,2.27.39,2.27,1.34s-.87,1.37-1.93,1.37a5.06,5.06,0,0,1-3.65-1.46l-1.34,1.75a6.49,6.49,0,0,0,5.09,1.91c2.67,0,4.36-1.46,4.36-3.44A2.75,2.75,0,0,0,97.45,66Z" transform="translate(0.16)" style="fill:#fff"/><polygon points="110.54 65.01 105.89 65.01 105.89 60.48 103.37 60.48 103.37 71.94 105.89 71.94 105.89 67.34 110.54 67.34 110.54 71.94 113.06 71.94 113.06 60.48 110.54 60.48 110.54 65.01" style="fill:#fff"/><path d="M121.42,60.4l-4.91,11.54h2.57l1-2.57H125l1,2.57h2.64l-4.9-11.54ZM121,67.14l1.52-3.72,1.52,3.72Z" transform="translate(0.16)" style="fill:#fff"/><path d="M137.45,55.83a2.64,2.64,0,0,0,2.75-2.49l-1.46-.26a1.31,1.31,0,0,1-2.59,0l-1.46.26A2.65,2.65,0,0,0,137.45,55.83Z" transform="translate(0.16)" style="fill:#fff"/><polygon points="142.29 71.94 142.29 60.48 139.95 60.48 134.91 67.99 134.91 60.48 132.42 60.48 132.42 71.94 134.79 71.94 139.8 64.42 139.8 71.94 142.29 71.94" style="fill:#fff"/><path d="M157.46,74.33l.33-4.67h-1.37V60.48h-8.33v1.34c0,3.91-.41,5.86-1.26,7.84h-1.08v4.67H148l.16-2.39h7.17v2.39Zm-3.57-4.67h-4.42a14.38,14.38,0,0,0,1-5.75V62.75h3.39Z" transform="translate(0.16)" style="fill:#fff"/><polygon points="170.28 69.7 164.06 69.7 164.06 67.29 169.46 67.29 169.46 65.05 164.06 65.05 164.06 62.72 170.2 62.72 170.2 60.48 161.56 60.48 161.56 71.94 170.28 71.94 170.28 69.7" style="fill:#fff"/><polygon points="181.06 65.01 176.41 65.01 176.41 60.48 173.89 60.48 173.89 71.94 176.41 71.94 176.41 67.34 181.06 67.34 181.06 71.94 183.58 71.94 183.58 60.48 181.06 60.48 181.06 65.01" style="fill:#fff"/><path d="M144.44,83.31a1.39,1.39,0,0,0,.35-2.19,2,2,0,0,0-1.47-.5H140.7v5.64h2.68c1.27,0,2.11-.52,2.11-1.55A1.38,1.38,0,0,0,144.44,83.31Zm-2.53-1.6h1.22c.52,0,.81.21.81.58s-.34.61-.89.61h-1.14Zm1.47,3.46h-1.47V83.93h1.43c.64,0,.92.23.92.61s-.32.63-.87.63Z" transform="translate(0.16)" style="fill:#fff"/><path d="M151.86,83.63l-1.52-3H149l2.25,4.2a.84.84,0,0,1-.71.45,1.25,1.25,0,0,1-.67-.18l-.48.91a2.36,2.36,0,0,0,1.21.33c.79,0,1.35-.39,1.84-1.37l2.16-4.34h-1.34Z" transform="translate(0.16)" style="fill:#fff"/><polygon points="160.7 80.66 159.21 80.66 156.93 83.11 156.93 80.66 155.7 80.66 155.7 86.28 156.93 86.28 156.93 84.56 157.58 83.89 159.32 86.28 160.81 86.28 158.42 83.04 160.7 80.66" style="fill:#fff"/><path d="M163.85,80.66h-2.29v5.62h1.24V84.59h.94a2,2,0,0,0,2.27-2,1.93,1.93,0,0,0-2.16-1.93Zm-.08,2.83h-1V81.78h1c.62,0,1,.3,1,.85a.87.87,0,0,1-1,.86Z" transform="translate(0.16)" style="fill:#fff"/><path d="M168.44,80.62,166,86.28h1.26l.51-1.26h2.38l.51,1.26H172l-2.41-5.66Zm-.19,3.31L169,82.1l.75,1.82Z" transform="translate(0.16)" style="fill:#fff"/><rect x="174.12" y="79.14" width="1.17" height="1.08" style="fill:#fff"/><rect x="173.23" y="80.66" width="1.24" height="5.62" style="fill:#fff"/><rect x="172.4" y="79.14" width="1.17" height="1.08" style="fill:#fff"/><polygon points="179.54 82.88 177.27 82.88 177.27 80.66 176.03 80.66 176.03 86.28 177.27 86.28 177.27 84.02 179.54 84.02 179.54 86.28 180.78 86.28 180.78 80.66 179.54 80.66 179.54 82.88" style="fill:#fff"/><rect x="182.34" y="80.66" width="1.24" height="5.62" style="fill:#fff"/><line x1="195.29" y1="77.73" x2="195.29" y2="101.1" style="fill:none;stroke:#fff;stroke-linecap:round;stroke-linejoin:round;stroke-width:0.5px"/><polyline points="0.25 46.38 195.29 46.38 195.29 58.27" style="fill:none;stroke:#fff;stroke-linecap:round;stroke-linejoin:round;stroke-width:0.5px"/><path d="M195,63.19a3,3,0,0,0-3.007,2.993q0,.1.007.207a3.06,3.06,0,0,0,2.917,3.2q.072,0,.143,0a3,3,0,0,0,3.007-2.993q0-.1-.007-.207a3.06,3.06,0,0,0-2.917-3.2Q195.072,63.19,195,63.19Z" transform="translate(0.16)" style="fill:none"/><path d="M195.63,58.88a.8.8,0,0,1-.18-.06h-1c-.53.12-1.08.19-1.6.35a7.52,7.52,0,0,0-5.29,8.23,14.75,14.75,0,0,0,1.79,5.19c1.54,2.77,3.17,5.5,4.77,8.24v.07l.41.68.32.53.31.51.29-.51.31-.53.39-.68.62-1.08c1.35-2.44,2.72-4.87,4-7.34a15.69,15.69,0,0,0,1.62-4.77,7.55,7.55,0,0,0-6.125-8.746Q195.949,58.909,195.63,58.88ZM195,73a6.54,6.54,0,0,1-6.757-6.316q0-.147,0-.294a6.63,6.63,0,0,1,6.648-6.612l.152,0A6.54,6.54,0,0,1,201.8,66.1q0,.147,0,.294A6.63,6.63,0,0,1,195.152,73Z" transform="translate(0.16)" style="fill:#ffed00"/><path d="M200.43,66.53a5.4,5.4,0,1,0,0,.05Q200.43,66.555,200.43,66.53Zm-9-.15a3.54,3.54,0,0,1,3.366-3.706q.1,0,.2,0a3.59,3.59,0,0,1,3.572,3.608q0,.051,0,.1a3.54,3.54,0,0,1-3.366,3.706q-.1,0-.2,0a3.58,3.58,0,0,1-3.552-3.608q0-.051,0-.1Z" transform="translate(0.16)" style="fill:#fff"/><path d="M201.27,66.38a6.27,6.27,0,1,0-6.438,6.1l.158,0a6.05,6.05,0,0,0,6.276-5.815Q201.271,66.522,201.27,66.38Zm-11.63.17a5.4,5.4,0,1,1,5.4,5.4H195a5.4,5.4,0,0,1-5.37-5.39Z" transform="translate(0.16)" style="fill:#fff"/><path d="M195,62.93a3.46,3.46,0,1,0,3.317,3.6q0-.074,0-.147a3.3,3.3,0,0,0-3.146-3.447Q195.087,62.929,195,62.93Zm0,6.65a3.06,3.06,0,0,1-3.063-3.057q0-.072,0-.143a3,3,0,0,1,2.793-3.193q.1-.007.207-.007A3.06,3.06,0,0,1,198,66.237q0,.072,0,.143a3,3,0,0,1-2.793,3.193Q195.1,69.58,195,69.58Z" transform="translate(0.16)" style="fill:#00b5da"/><path d="M201.78,66.38a6.54,6.54,0,0,0-6.465-6.614q-.157,0-.315,0a6.63,6.63,0,0,0-6.8,6.458q0,.076,0,.152A6.54,6.54,0,0,0,194.654,73q.173,0,.346,0a6.63,6.63,0,0,0,6.778-6.478Q201.78,66.451,201.78,66.38Zm-13.3,0A6.38,6.38,0,0,1,194.858,60L195,60a6.29,6.29,0,0,1,6.507,6.066q.005.147,0,.294a6.38,6.38,0,0,1-6.379,6.381H195a6.29,6.29,0,0,1-6.516-6.055Q188.478,66.532,188.48,66.38Z" transform="translate(0.16)" style="fill:#00b5da"/><path d="M198.56,66.38a3.59,3.59,0,0,0-3.468-3.708l-.092,0a3.54,3.54,0,0,0-3.544,3.536q0,.087,0,.174a3.58,3.58,0,0,0,3.447,3.708l.093,0a3.54,3.54,0,0,0,3.564-3.516Q198.565,66.477,198.56,66.38ZM195,69.83a3.46,3.46,0,1,1,3.275-3.635q0,.093,0,.185a3.31,3.31,0,0,1-3.167,3.447Z" transform="translate(0.16)" style="fill:#00b5da"/><path d="M201.53,66.38A6.29,6.29,0,0,0,195.335,60q-.168,0-.335,0a6.38,6.38,0,0,0-6.538,6.218q0,.071,0,.142a6.29,6.29,0,0,0,6.194,6.384q.173,0,.346,0a6.38,6.38,0,0,0,6.528-6.228Q201.53,66.446,201.53,66.38Zm-12.79,0a6.27,6.27,0,1,1,6.438,6.1l-.188,0a6.1,6.1,0,0,1-6.258-5.938q0-.081,0-.162Z" transform="translate(0.16)" style="fill:#00b5da"/><g style="isolation:isolate"><g style="isolation:isolate"><path d="M23.877,17.813l4.916-1.395h3.369V33.34H27.6V20.766l-2.836.645Z" transform="translate(0.16)" style="fill:#fdeb19"/><path d="M34.577,33.34V29.814l6.308-4.776a7.891,7.891,0,0,0,1.677-1.567,2.428,2.428,0,0,0,.488-1.438,1.569,1.569,0,0,0-.51-1.234,1.959,1.959,0,0,0-1.354-.454,2.831,2.831,0,0,0-1.57.489,9.342,9.342,0,0,0-1.77,1.653l-3.141-2.6a10.2,10.2,0,0,1,2.971-2.76,7.738,7.738,0,0,1,3.861-.869,6.487,6.487,0,0,1,4.454,1.508,4.98,4.98,0,0,1,1.71,3.921,6.15,6.15,0,0,1-.24,1.776,4.615,4.615,0,0,1-.773,1.49,8.98,8.98,0,0,1-1.189,1.27,19.99,19.99,0,0,1-1.687,1.3l-2.883,2h6.938v3.82Z" transform="translate(0.16)" style="fill:#fdeb19"/></g><g style="isolation:isolate"><path d="M56.928,33.34v-16.8h8.613a6.287,6.287,0,0,1,4.582,1.489,3.662,3.662,0,0,1,1.09,2.724,3.887,3.887,0,0,1-2.594,3.781,5.518,5.518,0,0,1,2.487,1.541,3.97,3.97,0,0,1,.856,2.683A3.929,3.929,0,0,1,70.28,32.12,7.86,7.86,0,0,1,65.6,33.34ZM61.487,23.2H64.41q2.2,0,2.2-1.529a1.242,1.242,0,0,0-.538-1.079,2.705,2.705,0,0,0-1.566-.38H61.487Zm0,6.457h3.59a2.8,2.8,0,0,0,1.649-.418,1.39,1.39,0,0,0,.585-1.206,1.315,1.315,0,0,0-.573-1.128A2.921,2.921,0,0,0,65.03,26.5H61.487Z" transform="translate(0.16)" style="fill:#fdeb19"/></g><g style="isolation:isolate"><path d="M72.261,33.34l7.16-16.922h4.488L91.058,33.34H86.065l-1.23-3h-6.48l-1.2,3Zm7.465-6.621H83.5l-1.875-4.781Z" transform="translate(0.16)" style="fill:#fdeb19"/><path d="M92.687,33.34v-16.8h7.2a7.726,7.726,0,0,1,5.1,1.569,5.36,5.36,0,0,1,1.887,4.358,5.745,5.745,0,0,1-.943,3.317,5.654,5.654,0,0,1-2.555,2.058,9.581,9.581,0,0,1-3.721.674H97.339V33.34Zm4.652-8.449h2.215a2.915,2.915,0,0,0,1.951-.6,2.051,2.051,0,0,0,.709-1.646,2.02,2.02,0,0,0-.709-1.658,3.035,3.035,0,0,0-1.975-.58H97.339Z" transform="translate(0.16)" style="fill:#fdeb19"/></g><g style="isolation:isolate"><path d="M107.9,20.625v-4.09h14.742v4.09h-5.051V33.34h-4.652V20.625Z" transform="translate(0.16)" style="fill:#fdeb19"/></g><g style="isolation:isolate"><path d="M123.384,24.943a8.458,8.458,0,0,1,.7-3.395,8.674,8.674,0,0,1,1.893-2.785,8.85,8.85,0,0,1,2.883-1.864,9.7,9.7,0,0,1,7.184-.006,8.739,8.739,0,0,1,2.862,1.853,8.5,8.5,0,0,1,1.868,2.779,8.656,8.656,0,0,1,.684,3.418,8.5,8.5,0,0,1-.7,3.4,8.665,8.665,0,0,1-1.888,2.787A8.851,8.851,0,0,1,136,32.989a9.369,9.369,0,0,1-3.589.69,9.268,9.268,0,0,1-4.617-1.165,8.487,8.487,0,0,1-3.24-3.162A8.584,8.584,0,0,1,123.384,24.943Zm4.77,0a4.591,4.591,0,0,0,1.219,3.2,4.238,4.238,0,0,0,6.164.018,4.877,4.877,0,0,0-.023-6.424,4.016,4.016,0,0,0-3.105-1.338,3.942,3.942,0,0,0-3.059,1.32A4.624,4.624,0,0,0,128.153,24.943Z" transform="translate(0.16)" style="fill:#fdeb19"/><path d="M143.892,33.34v-16.8H152.5a6.287,6.287,0,0,1,4.582,1.489,3.662,3.662,0,0,1,1.09,2.724,3.886,3.886,0,0,1-2.594,3.781,5.518,5.518,0,0,1,2.487,1.541,3.967,3.967,0,0,1,.856,2.683,3.928,3.928,0,0,1-1.683,3.367,7.86,7.86,0,0,1-4.686,1.22ZM148.45,23.2h2.923q2.2,0,2.2-1.529a1.242,1.242,0,0,0-.538-1.079,2.705,2.705,0,0,0-1.566-.38H148.45Zm0,6.457h3.591a2.8,2.8,0,0,0,1.648-.418,1.389,1.389,0,0,0,.585-1.206,1.315,1.315,0,0,0-.573-1.128,2.921,2.921,0,0,0-1.707-.412H148.45Z" transform="translate(0.16)" style="fill:#fdeb19"/><path d="M161.048,33.34v-16.8h4.605v9.457l6.5-9.457H176.5v16.8H171.9V23.883l-6.5,9.457Z" transform="translate(0.16)" style="fill:#fdeb19"/><path d="M178.251,33.34,184,24.8l-5.52-8.262h5.355l2.977,4.734,3-4.734h5.227l-5.52,8.215,5.766,8.59h-5.355l-3.223-5.062-3.234,5.063Z" transform="translate(0.16)" style="fill:#fdeb19"/></g></g></svg>