<svg width="113" height="42" viewBox="0 0 113 42" version="1.1" xmlns="http://www.w3.org/2000/svg" xmlns:xlink="http://www.w3.org/1999/xlink">
<title>Group</title>
<desc>Created using Figma</desc>
<g id="Canvas" transform="translate(405 -4504)">
<g id="Group">
<g id="Group">
<g id="Group">
<g id="Group">
<g id="Vector">
<use xlink:href="#path0_fill" transform="translate(-355.323 4517.4)" fill="#FFFFFF"/>
</g>
<g id="Vector">
<use xlink:href="#path1_fill" transform="translate(-339.174 4521.08)" fill="#FFFFFF"/>
</g>
<g id="Vector">
<use xlink:href="#path2_fill" transform="translate(-325.272 4521.08)" fill="#FFFFFF"/>
</g>
<g id="Vector">
<use xlink:href="#path3_fill" transform="translate(-311.083 4521.08)" fill="#FFFFFF"/>
</g>
<g id="Vector">
<use xlink:href="#path4_fill" transform="translate(-302.235 4521.08)" fill="#FFFFFF"/>
</g>
</g>
<g id="Group">
<g id="Vector">
<use xlink:href="#path5_fill" transform="translate(-354.973 4537.39)" fill="#FFFFFF"/>
</g>
<g id="Vector">
<use xlink:href="#path6_fill" transform="translate(-347.177 4539.11)" fill="#FFFFFF"/>
</g>
<g id="Vector">
<use xlink:href="#path7_fill" transform="translate(-341.182 4537.66)" fill="#FFFFFF"/>
</g>
<g id="Vector">
<use xlink:href="#path8_fill" transform="translate(-335.81 4539)" fill="#FFFFFF"/>
</g>
<g id="Vector">
<use xlink:href="#path9_fill" transform="translate(-329.927 4539.02)" fill="#FFFFFF"/>
</g>
<g id="Vector">
<use xlink:href="#path10_fill" transform="translate(-323.12 4539.11)" fill="#FFFFFF"/>
</g>
<g id="Vector">
<use xlink:href="#path11_fill" transform="translate(-316.472 4539.03)" fill="#FFFFFF"/>
</g>
<g id="Vector">
<use xlink:href="#path12_fill" transform="translate(-312.231 4539.02)" fill="#FFFFFF"/>
</g>
<g id="Vector">
<use xlink:href="#path13_fill" transform="translate(-306.46 4537.4)" fill="#FFFFFF"/>
</g>
<g id="Vector">
<use xlink:href="#path14_fill" transform="translate(-302.937 4539)" fill="#FFFFFF"/>
</g>
<g id="Vector">
<use xlink:href="#path15_fill" transform="translate(-296.496 4539.05)" fill="#FFFFFF"/>
</g>
</g>
<g id="Group">
<g id="Vector">
<use xlink:href="#path16_fill" transform="translate(-382.17 4504)" fill="#00B5DA"/>
</g>
<g id="Vector">
<use xlink:href="#path17_fill" transform="translate(-405 4504)" fill="#00B5DA"/>
</g>
<g id="Vector">
<use xlink:href="#path18_fill" transform="translate(-396.487 4517.16)" fill="#FFFFFF"/>
</g>
<g id="Vector">
<use xlink:href="#path19_fill" transform="translate(-379.189 4517.16)" fill="#FFFFFF"/>
</g>
</g>
</g>
</g>
</g>
</g>
<defs>
<path id="path0_fill" d="M 13.6786 4.67743L 13.6786 10.9355C 13.6786 12.6774 13.1525 13.8549 12.0844 14.4678C 11.0162 15.0807 9.15096 15.3871 6.48857 15.3871L 1.9461e-06 15.3871L 1.9461e-06 2.4611e-07L 6.47263 2.4611e-07C 9.0553 2.4611e-07 10.9046 0.322582 12.0206 0.967745C 13.1206 1.62904 13.6786 2.85485 13.6786 4.67743ZM 10.0118 10.9355L 10.0118 4.59679C 10.0118 3.85485 9.70894 3.33872 9.11907 3.0484C 8.5292 2.75807 7.62048 2.62904 6.4248 2.62904L 3.63488 2.62904L 3.63488 12.7581L 6.3132 12.7581C 7.71614 12.7581 8.68863 12.6452 9.21473 12.4355C 9.75677 12.2258 10.0118 11.7258 10.0118 10.9355Z"/>
<path id="path1_fill" d="M 11.5423 4.38711L 11.5423 7.77421C 11.5423 8.51615 11.4307 9.16131 11.1916 9.67744C 10.9525 10.2097 10.6655 10.6129 10.3307 10.9033C 9.97996 11.1936 9.53357 11.4194 8.97559 11.5807C 8.4176 11.742 7.90745 11.8387 7.44512 11.871C 6.98279 11.9033 6.4248 11.9355 5.77116 11.9355C 5.11752 11.9355 4.55954 11.9194 4.09721 11.871C 3.63488 11.8226 3.12472 11.7258 2.56673 11.5807C 2.00875 11.4194 1.56236 11.1936 1.21163 10.9033C 0.860892 10.6129 0.57393 10.1936 0.350735 9.67744C 0.111599 9.14518 0 8.51615 0 7.77421L 0 4.38711C 0 3.59678 0.127538 2.91936 0.366674 2.35484C 0.605811 1.79033 0.908718 1.37097 1.25945 1.06452C 1.61018 0.758067 2.07252 0.532259 2.6305 0.370969C 3.18849 0.209678 3.69864 0.0967742 4.14503 0.064516C 4.59142 0.0161288 5.13347 -4.9222e-07 5.77116 -4.9222e-07C 6.40886 -4.9222e-07 6.9509 0.0161288 7.39729 0.064516C 7.84368 0.0967742 8.35383 0.209678 8.91182 0.370969C 9.4698 0.532259 9.93214 0.774196 10.2829 1.06452C 10.6336 1.37097 10.9365 1.79033 11.1756 2.35484C 11.4307 2.91936 11.5423 3.59678 11.5423 4.38711ZM 8.1147 8.17744L 8.1147 3.83872C 8.1147 3.22581 7.95527 2.79033 7.65237 2.51614C 7.33352 2.25807 6.71177 2.12904 5.77116 2.12904C 4.83056 2.12904 4.2088 2.25807 3.88995 2.51614C 3.5711 2.7742 3.41168 3.20969 3.41168 3.83872L 3.41168 8.17744C 3.41168 8.77421 3.5711 9.19357 3.87401 9.43551C 4.17692 9.67744 4.79867 9.79035 5.75522 9.79035C 6.71177 9.79035 7.33352 9.67744 7.63642 9.43551C 7.97122 9.2097 8.1147 8.79034 8.1147 8.17744Z"/>
<path id="path2_fill" d="M 11.5264 4.38711L 11.5264 7.77421C 11.5264 8.51615 11.4148 9.16131 11.1756 9.67744C 10.9365 10.2097 10.6495 10.6129 10.3148 10.9033C 9.96403 11.1936 9.51763 11.4194 8.97559 11.5807C 8.4176 11.742 7.90745 11.8387 7.44512 11.871C 6.98279 11.9033 6.4248 11.9355 5.77116 11.9355C 5.11752 11.9355 4.55954 11.9194 4.09721 11.871C 3.63488 11.8226 3.12471 11.7258 2.56673 11.5807C 2.00874 11.4194 1.56236 11.1936 1.22757 10.9033C 0.876838 10.6129 0.589874 10.1936 0.350737 9.67744C 0.111601 9.14518 1.9461e-06 8.51615 1.9461e-06 7.77421L 1.9461e-06 4.38711C 1.9461e-06 3.59678 0.127539 2.91936 0.366676 2.35484C 0.605812 1.79033 0.908715 1.37097 1.25945 1.06452C 1.61018 0.758067 2.07252 0.532259 2.6305 0.370969C 3.18849 0.209678 3.69865 0.0967742 4.14503 0.064516C 4.59142 0.0161288 5.13347 -4.9222e-07 5.77116 -4.9222e-07C 6.40886 -4.9222e-07 6.9509 0.0161288 7.39728 0.064516C 7.84367 0.0967742 8.35383 0.209678 8.91182 0.370969C 9.4698 0.532259 9.93214 0.774196 10.2829 1.06452C 10.6336 1.37097 10.9365 1.79033 11.1756 2.35484C 11.3988 2.91936 11.5264 3.59678 11.5264 4.38711ZM 8.09876 8.17744L 8.09876 3.83872C 8.09876 3.22581 7.93933 2.79033 7.62048 2.51614C 7.30163 2.25807 6.67988 2.12904 5.73928 2.12904C 4.79867 2.12904 4.17692 2.25807 3.85807 2.51614C 3.53922 2.7742 3.39574 3.20969 3.39574 3.83872L 3.39574 8.17744C 3.39574 8.77421 3.55517 9.19357 3.85807 9.43551C 4.16098 9.67744 4.79867 9.79035 5.73928 9.79035C 6.69582 9.79035 7.31758 9.67744 7.62048 9.43551C 7.93933 9.2097 8.09876 8.79034 8.09876 8.17744Z"/>
<path id="path3_fill" d="M 7.42917 2.87097L 6.26538 2.87097C 5.32477 2.87097 4.62331 3.01614 4.14503 3.30646C 3.66676 3.59678 3.42763 4.09678 3.42763 4.80646L 3.42763 11.7097L 1.9461e-06 11.7097L 1.9461e-06 0.225807L 3.25225 0.225807L 3.25225 2.24194C 3.2682 1.67742 3.58705 1.16129 4.22475 0.69355C 4.86244 0.225807 5.51608 -4.9222e-07 6.2016 -4.9222e-07L 7.42917 -4.9222e-07L 7.42917 2.87097Z"/>
<path id="path4_fill" d="M 10.235 7.24195L 10.235 8.69357C 10.235 9.25809 10.1394 9.75809 9.9162 10.1613C 9.70895 10.5807 9.43793 10.8871 9.11908 11.1291C 8.80023 11.3549 8.38572 11.5323 7.85962 11.6613C 7.34946 11.7904 6.85525 11.871 6.37698 11.9033C 5.8987 11.9355 5.34072 11.9678 4.70302 11.9678C 3.47545 11.9678 1.97686 11.8549 0.22319 11.6129L 0.22319 9.30647C 2.39136 9.64518 3.9059 9.80647 4.75085 9.80647C 5.42043 9.80647 5.94653 9.74196 6.3132 9.61293C 6.67988 9.48389 6.87119 9.2097 6.87119 8.8226L 6.87119 8.11292C 6.87119 7.74195 6.77554 7.48389 6.56829 7.29034C 6.36104 7.11292 5.93059 7.01614 5.26101 7.01614L 3.77836 7.01614C 2.59862 7.01614 1.67396 6.77421 1.00437 6.29034C 0.334791 5.80646 1.9461e-06 5.09679 1.9461e-06 4.1613L 1.9461e-06 2.75807C 1.9461e-06 1.70968 0.494216 1 1.48265 0.596776C 2.47108 0.209678 3.85807 -4.9222e-07 5.64362 -4.9222e-07C 6.39291 -4.9222e-07 7.73208 0.0645163 9.67706 0.209678L 9.67706 2.41936C 7.23787 2.22581 5.86682 2.12904 5.54797 2.12904C 4.59142 2.12904 3.98561 2.19355 3.74647 2.32259C 3.49139 2.45162 3.3798 2.70968 3.3798 3.09678L 3.3798 3.70969C 3.3798 3.90323 3.47545 4.08065 3.66676 4.22582C 3.85807 4.38711 4.16098 4.46775 4.57548 4.46775L 6.07407 4.46775C 8.84805 4.48388 10.235 5.40324 10.235 7.24195Z"/>
<path id="path5_fill" d="M 5.27695 1.82259L 5.27695 4.82259C 5.27695 5.17743 5.19723 5.46775 5.03781 5.70969C 4.87839 5.95163 4.65519 6.12905 4.36823 6.24195C 4.08126 6.35485 3.81024 6.4355 3.52328 6.48389C 3.25226 6.53227 2.94935 6.5484 2.6305 6.5484C 0.876833 6.5484 -9.73049e-07 5.98389 -9.73049e-07 4.82259L -9.73049e-07 1.82259C -9.73049e-07 0.612906 0.876833 4.9222e-07 2.6305 4.9222e-07C 4.40011 0.0161296 5.27695 0.629035 5.27695 1.82259ZM 4.36823 4.82259L 4.36823 1.80646C 4.36823 1.01613 3.7943 0.629033 2.6305 0.629033C 2.39136 0.629033 2.16817 0.645163 1.97686 0.677421C 1.78555 0.709679 1.61019 0.758066 1.43482 0.838712C 1.25945 0.919357 1.13191 1.03226 1.02031 1.19355C 0.924659 1.35484 0.876833 1.54839 0.876833 1.79033L 0.876833 4.80646C 0.876833 5.53227 1.45076 5.90324 2.6305 5.90324C 3.7943 5.91937 4.36823 5.56453 4.36823 4.82259Z"/>
<path id="path6_fill" d="M 4.03344 4.72582L 3.1566 4.72582L 3.1566 4.14517C 3.06095 4.59678 2.55079 4.82259 1.62613 4.82259C 1.00437 4.82259 0.58987 4.70969 0.350734 4.48388C 0.127539 4.25808 -1.9461e-06 3.91936 -1.9461e-06 3.46775L -1.9461e-06 -4.58416e-15L 0.876832 -4.58416e-15L 0.876832 3.41936C 0.876832 3.53227 0.892776 3.62904 0.908719 3.70969C 0.924661 3.79033 0.97249 3.87098 1.02032 3.95162C 1.08409 4.03227 1.17974 4.09679 1.32322 4.12904C 1.4667 4.17743 1.64207 4.19356 1.86526 4.19356C 2.34354 4.19356 2.67833 4.14517 2.86964 4.06453C 3.06095 3.96775 3.1566 3.80646 3.1566 3.56453L 3.1566 -4.58416e-15L 4.03344 -4.58416e-15L 4.03344 4.72582Z"/>
<path id="path7_fill" d="M 3.58705 6.20969C 3.28414 6.25808 2.94935 6.29034 2.61456 6.29034C 2.02469 6.29034 1.62613 6.19356 1.38699 5.98389C 1.1638 5.77421 1.03626 5.38711 1.03626 4.82259L 1.03626 2.04839L -9.73049e-07 2.04839L -9.73049e-07 1.46775L 1.03626 1.46775L 1.03626 -4.58416e-15L 1.91309 -4.58416e-15L 1.91309 1.46775L 3.58705 1.46775L 3.58705 2.04839L 1.92903 2.04839L 1.92903 4.87098C 1.92903 5.20969 1.99281 5.4355 2.12035 5.5484C 2.24789 5.6613 2.50296 5.72582 2.90152 5.72582C 2.99718 5.72582 3.23631 5.69356 3.60299 5.64517L 3.60299 6.20969L 3.58705 6.20969Z"/>
<path id="path8_fill" d="M 3.76242 3.19356L 3.76242 3.59678C 3.76242 4.11291 3.58705 4.45163 3.23631 4.64517C 2.88558 4.83872 2.37542 4.9355 1.72178 4.9355C 1.22757 4.9355 0.685523 4.90324 0.111595 4.82259L 0.111595 4.14517C 0.892774 4.2742 1.43482 4.32259 1.73773 4.32259C 2.12034 4.32259 2.42325 4.29033 2.61456 4.20969C 2.80587 4.12904 2.90152 3.98388 2.90152 3.74195L 2.90152 3.25807C 2.90152 3.04839 2.83775 2.91936 2.69427 2.82259C 2.56673 2.74194 2.34354 2.69356 2.04063 2.69356L 1.49859 2.69356C 1.00437 2.69356 0.637697 2.59678 0.382618 2.3871C 0.127539 2.17743 9.73049e-07 1.90323 9.73049e-07 1.54839L 9.73049e-07 1.11291C 9.73049e-07 0.370968 0.701469 4.9222e-07 2.08846 4.9222e-07C 2.24788 4.9222e-07 2.71021 0.0322586 3.50734 0.0806459L 3.50734 0.709679C 2.94935 0.612904 2.47108 0.564518 2.05657 0.564518C 1.59424 0.564518 1.2754 0.612904 1.11597 0.709679C 0.956547 0.806453 0.860891 0.951615 0.860891 1.16129L 0.860891 1.56452C 0.860891 1.8871 1.14785 2.04839 1.72178 2.04839L 2.26382 2.04839C 3.2682 2.06452 3.76242 2.43549 3.76242 3.19356Z"/>
<path id="path9_fill" d="M 4.3204 1.69355L 4.3204 3.33872C 4.3204 3.62904 4.28851 3.88711 4.2088 4.08066C 4.14503 4.29033 4.04938 4.4355 3.93778 4.5484C 3.82619 4.6613 3.66676 4.74195 3.47545 4.80647C 3.2682 4.87098 3.07689 4.90324 2.90153 4.91937C 2.71022 4.9355 2.47108 4.9355 2.16817 4.9355C 1.78555 4.9355 1.48265 4.91937 1.25945 4.90324C 1.03626 4.87098 0.829005 4.80646 0.605811 4.70969C 0.398559 4.61292 0.239136 4.45163 0.143481 4.22582C 0.0478263 4.00001 -9.06223e-15 3.70969 -9.06223e-15 3.33872L -9.06223e-15 1.69355C -9.06223e-15 1.3871 0.0318868 1.11291 0.111599 0.903228C 0.191311 0.69355 0.27102 0.516129 0.382617 0.403226C 0.494214 0.290322 0.653639 0.193548 0.860891 0.129032C 1.06814 0.0645158 1.25945 0.0322581 1.43482 0.0161291C 1.61019 0 1.84932 -9.8444e-07 2.16817 -9.8444e-07C 2.47108 -9.8444e-07 2.72616 0 2.90153 0.0161291C 3.07689 0.0322581 3.2682 0.0645158 3.47545 0.129032C 3.6827 0.193548 3.84213 0.274193 3.93778 0.403226C 4.04938 0.516129 4.12909 0.69355 4.2088 0.903228C 4.28851 1.11291 4.3204 1.3871 4.3204 1.69355ZM 3.42762 3.46775L 3.42762 1.54839C 3.42762 1.11291 3.33197 0.838712 3.17254 0.741937C 2.99718 0.645163 2.66239 0.580647 2.16817 0.580647C 1.67396 0.580647 1.33916 0.629034 1.1638 0.741937C 0.988429 0.854841 0.908721 1.11291 0.908721 1.54839L 0.908721 3.46775C 0.908721 3.67743 0.940605 3.83872 0.972489 3.96775C 1.02032 4.09678 1.10003 4.17743 1.22757 4.24195C 1.35511 4.29033 1.48265 4.33872 1.61019 4.33872C 1.73773 4.35485 1.92904 4.35485 2.18412 4.35485C 2.43919 4.35485 2.6305 4.35485 2.75804 4.33872C 2.88558 4.32259 3.01312 4.29033 3.14066 4.24195C 3.2682 4.17743 3.34791 4.09678 3.39574 3.96775C 3.41168 3.83872 3.42762 3.67743 3.42762 3.46775Z"/>
<path id="path10_fill" d="M 4.0175 4.72582L 3.1566 4.72582L 3.1566 4.14517C 3.06095 4.59678 2.55079 4.82259 1.62613 4.82259C 1.00438 4.82259 0.589874 4.70969 0.350737 4.48388C 0.111601 4.25808 1.9461e-06 3.91936 1.9461e-06 3.46775L 1.9461e-06 -4.58416e-15L 0.876836 -4.58416e-15L 0.876836 3.41936C 0.876836 3.53227 0.876838 3.62904 0.908723 3.70969C 0.924665 3.79033 0.97249 3.87098 1.03626 3.95162C 1.10003 4.03227 1.19568 4.09679 1.33916 4.12904C 1.48264 4.17743 1.65801 4.19356 1.88121 4.19356C 2.35948 4.19356 2.69427 4.14517 2.88558 4.06453C 3.07689 3.96775 3.17254 3.80646 3.17254 3.56453L 3.17254 -4.58416e-15L 4.03344 -4.58416e-15L 4.03344 4.72582L 4.0175 4.72582Z"/>
<path id="path11_fill" d="M 2.51891 0.741938L 2.04063 0.741938C 1.64207 0.741938 1.35511 0.790325 1.1638 0.903229C 0.97249 1 0.876838 1.20968 0.876838 1.48387L 0.876838 4.82259L 3.8922e-06 4.82259L 3.8922e-06 0.0967754L 0.829003 0.0967754L 0.829003 0.870969C 0.829003 0.645162 0.97249 0.435486 1.24351 0.258066C 1.53048 0.0806463 1.80149 4.58416e-15 2.1044 4.58416e-15L 2.53485 4.58416e-15L 2.53485 0.741938L 2.51891 0.741938Z"/>
<path id="path12_fill" d="M 3.55516 4.79034C 3.12472 4.88711 2.63051 4.9355 2.05658 4.9355C 1.76961 4.9355 1.54642 4.9355 1.38699 4.91937C 1.22757 4.90324 1.0522 4.87098 0.844947 4.82259C 0.637695 4.7742 0.494219 4.69356 0.382622 4.58066C 0.271025 4.48388 0.191311 4.32259 0.111599 4.12904C 0.0318868 3.93549 1.81245e-14 3.67743 1.81245e-14 3.3871L 1.81245e-14 1.64517C 1.81245e-14 1.3871 0.0318849 1.16129 0.0797122 0.967743C 0.127539 0.774194 0.207256 0.629035 0.30291 0.516131C 0.398565 0.403228 0.510162 0.306453 0.621759 0.225808C 0.733356 0.161291 0.876836 0.0967735 1.06815 0.0806444C 1.25945 0.0483862 1.43482 0.0322581 1.56236 0.0161291C 1.70584 0 1.89715 -9.8444e-07 2.15223 -9.8444e-07C 2.59862 -9.8444e-07 3.04501 0.0483877 3.4914 0.145162L 3.4914 0.790325C 2.99718 0.661292 2.50297 0.596777 2.05658 0.596777C 1.5783 0.596777 1.25945 0.661291 1.11597 0.774195C 0.972489 0.887098 0.892772 1.14516 0.892772 1.51613L 0.892772 3.45162C 0.892772 3.79033 0.97249 4.03227 1.14786 4.14517C 1.30728 4.25808 1.64207 4.32259 2.15223 4.32259C 2.61456 4.32259 3.07689 4.25808 3.57111 4.14517L 3.57111 4.79034L 3.55516 4.79034Z"/>
<path id="path13_fill" d="M 0.860888 0.919358L 1.9461e-06 0.919358L 1.9461e-06 -9.8444e-07L 0.860888 -9.8444e-07L 0.860888 0.919358ZM 0.860888 6.4355L 1.9461e-06 6.4355L 1.9461e-06 1.70968L 0.860888 1.70968L 0.860888 6.4355Z"/>
<path id="path14_fill" d="M 4.00155 4.83872L 3.14066 4.83872L 3.14066 1.41936C 3.14066 1.30646 3.12472 1.20968 3.10877 1.12904C 3.09283 1.04839 3.04501 0.967745 2.98124 0.887099C 2.91747 0.806454 2.82181 0.741938 2.67833 0.693551C 2.53484 0.645164 2.35948 0.629033 2.13629 0.629033C 1.62613 0.629033 1.29134 0.67742 1.11597 0.790324C 0.940602 0.903228 0.860893 1.11291 0.860893 1.40323L 0.860893 4.82259L -1.9461e-06 4.82259L -1.9461e-06 0.0967734L 0.860893 0.0967734L 0.860893 0.677421C 0.956548 0.225807 1.4667 4.9222e-07 2.39136 4.9222e-07C 3.01312 4.9222e-07 3.44356 0.112903 3.66676 0.33871C 3.90589 0.564517 4.01749 0.903228 4.01749 1.35484L 4.01749 4.83872L 4.00155 4.83872Z"/>
<path id="path15_fill" d="M 4.17692 0.0645163L 4.17692 5.24195C 4.17692 5.91937 3.98561 6.37098 3.61894 6.59679C 3.25226 6.8226 2.69428 6.95163 1.94498 6.95163C 1.2754 6.95163 0.749292 6.91937 0.334789 6.83873L 0.334789 6.20969C 1.08408 6.30647 1.64207 6.35485 2.02469 6.35485C 2.47108 6.35485 2.78993 6.27421 2.99718 6.14518C 3.20443 6.00002 3.30009 5.75808 3.30009 5.4355L 3.30009 4.30646C 3.28414 4.53227 3.14066 4.67743 2.85369 4.77421C 2.56673 4.87098 2.23194 4.91937 1.86527 4.91937C 1.14786 4.91937 0.653642 4.80646 0.398563 4.59679C 0.143484 4.38711 1.9461e-06 4.01614 1.9461e-06 3.48388L 1.9461e-06 1.56452C 1.9461e-06 1 0.143482 0.612905 0.446388 0.35484C 0.749294 0.112904 1.22757 9.8444e-07 1.91309 9.8444e-07C 2.72616 9.8444e-07 3.20443 0.177421 3.34791 0.564519L 3.34791 0.112904L 4.17692 0.112904L 4.17692 0.0645163ZM 3.30009 3.51614L 3.30009 1.37097C 3.30009 1.06452 3.22038 0.85484 3.06095 0.741937C 2.90153 0.629033 2.55079 0.564519 2.04063 0.564519C 1.56236 0.564519 1.24351 0.612906 1.10002 0.725809C 0.956542 0.838713 0.876836 1.04839 0.876836 1.35484L 0.876836 3.50001C 0.876836 3.82259 0.956548 4.03227 1.11597 4.14517C 1.2754 4.24195 1.59425 4.29033 2.07252 4.29033C 2.51891 4.29033 2.82181 4.24195 3.02906 4.12904C 3.20443 4.0484 3.30009 3.83872 3.30009 3.51614Z"/>
<path id="path16_fill" d="M 4.86524e-07 3.6613L 18.7005 3.07638e-08L 18.7005 41.8549L 4.86524e-07 38.1936L 4.86524e-07 3.6613Z"/>
<path id="path17_fill" d="M 18.7005 38.1936L 6.08156e-08 41.8549L 6.08156e-08 3.07638e-08L 18.7005 3.6613L 18.7005 38.1936Z"/>
<path id="path18_fill" d="M 2.80587 2.4611e-07L 2.80587 15.5484L 0 15.5484L 0 2.4611e-07L 2.80587 2.4611e-07Z"/>
<path id="path19_fill" d="M 4.38417 2.37097L 0 2.37097L 0 2.4611e-07L 11.6061 2.4611e-07L 11.6061 2.37097L 7.1741 2.37097L 7.1741 15.5323L 4.38417 15.5323L 4.38417 2.37097Z"/>
</defs>
</svg>
