<svg id="share-ico" xmlns="http://www.w3.org/2000/svg" viewBox="0 0 13.999 22" fill="#0db5da"><ellipse cx="10.868" cy="18.835" rx="3.128" ry="3.165"/><path d="M5.683,8.175A.438.438,0,0,0,6,8.044l2.639-2.67a3.1,3.1,0,0,0,2.237.956A3.158,3.158,0,1,0,8.106,4.643L5.37,7.411a.451.451,0,0,0,0,.633A.438.438,0,0,0,5.683,8.175Z"/><path d="M7.773,16.033,5.165,13.394A3.171,3.171,0,0,0,3.128,7.83a3.165,3.165,0,0,0,0,6.33A3.077,3.077,0,0,0,4.4,13.886l2.748,2.78a.439.439,0,0,0,.626,0A.451.451,0,0,0,7.773,16.033Z"/></svg>
